<svg xmlns="http://www.w3.org/2000/svg" xmlns:xlink="http://www.w3.org/1999/xlink" width="378" zoomAndPan="magnify" viewBox="0 0 283.5 283.500005" height="378" preserveAspectRatio="xMidYMid meet" version="1.0"><defs><clipPath id="id1"><path d="M 8.792969 23.886719 L 283 23.886719 L 283 283 L 8.792969 283 Z M 8.792969 23.886719 " clip-rule="nonzero"/></clipPath><clipPath id="id2"><path d="M 147 69 L 283 69 L 283 283 L 147 283 Z M 147 69 " clip-rule="nonzero"/></clipPath></defs><g clip-path="url(#id1)"><path fill="rgb(94.509888%, 97.24884%, 100%)" d="M 286.292969 286.3125 L 286.292969 24.371094 C 284.105469 24.082031 281.878906 23.933594 279.613281 23.933594 C 251.445312 23.933594 228.574219 46.828125 228.574219 75.023438 C 228.574219 82.171875 230.046875 88.972656 232.695312 95.152344 C 209.402344 96.480469 190.894531 115.835938 190.894531 139.484375 C 190.894531 143.332031 191.382812 147.066406 192.304688 150.628906 C 184.257812 152.007812 177.265625 156.5 172.609375 162.816406 C 163.445312 154.941406 151.535156 150.179688 138.519531 150.179688 C 109.617188 150.179688 86.144531 173.671875 86.144531 202.609375 C 86.144531 207.015625 86.691406 211.300781 87.714844 215.394531 C 67.15625 218.390625 51.152344 235.535156 49.882812 256.625 C 46.785156 255.59375 43.472656 255.035156 40.03125 255.035156 C 22.789062 255.035156 8.789062 269.050781 8.789062 286.3125 L 286.292969 286.3125 " fill-opacity="1" fill-rule="evenodd"/></g><g clip-path="url(#id2)"><path fill="rgb(81.568909%, 92.158508%, 94.119263%)" d="M 286.292969 286.3125 L 286.292969 69.460938 C 271.519531 69.460938 259.527344 81.464844 259.527344 96.25 C 259.527344 99.960938 260.28125 103.496094 261.648438 106.707031 C 245.003906 110.164062 232.480469 124.941406 232.480469 142.621094 C 232.480469 152.796875 236.628906 162.011719 243.324219 168.65625 C 236.636719 175.179688 232.480469 184.292969 232.480469 194.367188 C 232.480469 196.800781 232.722656 199.175781 233.183594 201.472656 C 213.625 203.308594 198.300781 219.808594 198.300781 239.863281 C 198.300781 245.480469 199.503906 250.816406 201.664062 255.632812 C 194.296875 257.148438 188.195312 262.160156 185.171875 268.855469 C 181.1875 265.46875 176.027344 263.429688 170.398438 263.429688 C 157.78125 263.429688 147.539062 273.683594 147.539062 286.3125 L 286.292969 286.3125 " fill-opacity="1" fill-rule="evenodd"/></g></svg>