<svg xmlns="http://www.w3.org/2000/svg" xmlns:xlink="http://www.w3.org/1999/xlink" width="378" zoomAndPan="magnify" viewBox="0 0 283.5 283.500005" height="378" preserveAspectRatio="xMidYMid meet" version="1.0"><defs><clipPath id="id1"><path d="M 0 15.710938 L 254.25 15.710938 L 254.25 283 L 0 283 Z M 0 15.710938 " clip-rule="nonzero"/></clipPath><clipPath id="id2"><path d="M 0 47 L 128 47 L 128 283 L 0 283 Z M 0 47 " clip-rule="nonzero"/></clipPath></defs><g clip-path="url(#id1)"><path fill="rgb(94.509888%, 97.24884%, 100%)" d="M 0 283.257812 L 0 15.898438 C 12.894531 15.898438 23.917969 23.988281 28.269531 35.367188 C 31.660156 34.492188 35.21875 34.023438 38.878906 34.023438 C 62.28125 34.023438 81.277344 53.03125 81.277344 76.441406 C 81.277344 80.3125 80.757812 84.0625 79.785156 87.625 C 92.882812 92.5 102.222656 105.125 102.222656 119.914062 C 102.222656 126.945312 100.113281 133.484375 96.492188 138.933594 C 101.730469 140.863281 106.3125 144.148438 109.8125 148.363281 C 116.839844 142.660156 125.796875 139.238281 135.542969 139.238281 C 158.101562 139.238281 176.414062 157.5625 176.414062 180.132812 C 176.414062 190.277344 172.714844 199.566406 166.589844 206.714844 C 170.15625 211.363281 172.886719 216.679688 174.550781 222.453125 C 178.195312 221.519531 182.011719 221.023438 185.941406 221.023438 C 209.195312 221.023438 228.433594 238.371094 231.421875 260.824219 C 231.554688 260.824219 231.6875 260.820312 231.824219 260.820312 C 244.199219 260.820312 254.25 270.875 254.25 283.257812 L 0 283.257812 " fill-opacity="1" fill-rule="evenodd"/></g><g clip-path="url(#id2)"><path fill="rgb(81.568909%, 92.158508%, 94.119263%)" d="M 0 283.257812 L 0 47.847656 C 10.839844 47.847656 19.640625 56.652344 19.640625 67.496094 C 19.640625 69.691406 19.28125 71.800781 18.617188 73.769531 C 33.375 76.054688 44.683594 88.835938 44.683594 104.234375 C 44.683594 114.660156 39.5 123.882812 31.574219 129.464844 C 34.21875 133.574219 35.757812 138.464844 35.757812 143.714844 C 35.757812 148.425781 34.519531 152.847656 32.351562 156.679688 C 35.355469 160.320312 37.160156 164.992188 37.160156 170.078125 L 37.160156 170.109375 C 54.777344 170.84375 68.855469 185.382812 68.855469 203.191406 C 68.855469 213.074219 64.523438 221.949219 57.652344 228.015625 C 60.335938 230.625 62.238281 234.03125 62.988281 237.847656 C 66.058594 236.847656 69.335938 236.304688 72.738281 236.304688 C 87.519531 236.304688 99.933594 246.519531 103.308594 260.269531 C 103.609375 260.257812 103.914062 260.253906 104.21875 260.253906 C 116.910156 260.253906 127.214844 270.5625 127.214844 283.257812 L 0 283.257812 " fill-opacity="1" fill-rule="evenodd"/></g></svg>