<svg xmlns="http://www.w3.org/2000/svg" xmlns:xlink="http://www.w3.org/1999/xlink" width="378" zoomAndPan="magnify" viewBox="0 0 283.5 283.500005" height="378" preserveAspectRatio="xMidYMid meet" version="1.0"><defs><clipPath id="id1"><path d="M 47 74 L 239 74 L 239 243 L 47 243 Z M 47 74 " clip-rule="nonzero"/></clipPath><clipPath id="id2"><path d="M 15.65625 92.980469 L 262.171875 16.859375 L 315.722656 190.277344 L 69.207031 266.402344 Z M 15.65625 92.980469 " clip-rule="nonzero"/></clipPath><clipPath id="id3"><path d="M -63.242188 -162.523438 L 183.269531 -238.648438 L 315.824219 190.601562 L 69.308594 266.726562 Z M -63.242188 -162.523438 " clip-rule="nonzero"/></clipPath></defs><g clip-path="url(#id1)"><g clip-path="url(#id2)"><g clip-path="url(#id3)"><path fill="rgb(100%, 34.118652%, 34.118652%)" d="M 142.617188 107.503906 C 140.886719 107.550781 139.320312 106.542969 138.574219 104.976562 C 119.394531 64.558594 45.730469 66.632812 47.378906 126.910156 C 49.453125 202.566406 131.832031 237.265625 144.65625 242.210938 C 145.730469 242.628906 146.914062 242.597656 147.957031 242.125 C 160.492188 236.5 240.855469 197.449219 238.78125 121.789062 C 237.128906 61.511719 163.460938 63.378906 146.523438 104.761719 C 145.863281 106.367188 144.351562 107.457031 142.617188 107.503906 " fill-opacity="1" fill-rule="nonzero"/></g></g></g></svg>