<svg xmlns="http://www.w3.org/2000/svg" xmlns:xlink="http://www.w3.org/1999/xlink" width="378" zoomAndPan="magnify" viewBox="0 0 283.5 113.249998" height="151" preserveAspectRatio="xMidYMid meet" version="1.0"><defs><clipPath id="id1"><path d="M 0.683594 59 L 282.320312 59 L 282.320312 112.503906 L 0.683594 112.503906 Z M 0.683594 59 " clip-rule="nonzero"/></clipPath></defs><g clip-path="url(#id1)"><path fill="rgb(43.528748%, 76.858521%, 25.878906%)" d="M 179.410156 61.394531 C 118.046875 56.394531 55.714844 61.347656 2.027344 94.683594 C -7.371094 100.523438 -18.929688 111.871094 -16.453125 123.597656 C -14.175781 134.363281 0.046875 135.667969 10.046875 137.996094 C 37.78125 144.460938 66.621094 142.148438 94.894531 142.519531 C 145.472656 143.109375 196.410156 140.269531 247.285156 141.988281 C 268.414062 142.699219 289.546875 143.703125 310.683594 143.285156 C 320.5625 143.089844 331.921875 141.792969 337.4375 133.574219 C 350.230469 114.496094 323.1875 92.015625 308.191406 84.925781 C 294.601562 78.5 279.601562 75.824219 264.804688 73.214844 C 237.234375 68.347656 208.429688 63.757812 179.410156 61.394531 Z M 179.410156 61.394531 " fill-opacity="1" fill-rule="nonzero"/></g></svg>