<svg xmlns="http://www.w3.org/2000/svg" xmlns:xlink="http://www.w3.org/1999/xlink" width="378" zoomAndPan="magnify" viewBox="0 0 283.5 113.249998" height="151" preserveAspectRatio="xMidYMid meet" version="1.0"><defs><clipPath id="id1"><path d="M 0.683594 40 L 266 40 L 266 107 L 0.683594 107 Z M 0.683594 40 " clip-rule="nonzero"/></clipPath><clipPath id="id2"><path d="M 0.683594 49 L 278 49 L 278 112.503906 L 0.683594 112.503906 Z M 0.683594 49 " clip-rule="nonzero"/></clipPath><clipPath id="id3"><path d="M 3 59 L 282.320312 59 L 282.320312 112.503906 L 3 112.503906 Z M 3 59 " clip-rule="nonzero"/></clipPath></defs><g clip-path="url(#id1)"><path fill="rgb(89.408875%, 99.21875%, 69.018555%)" d="M 107.925781 41.378906 C 157.09375 37.394531 207.039062 41.339844 250.058594 67.898438 C 257.589844 72.546875 266.855469 81.589844 264.867188 90.929688 C 263.042969 99.503906 251.644531 100.542969 243.632812 102.398438 C 221.410156 107.546875 198.300781 105.707031 175.644531 106.003906 C 135.117188 106.472656 94.300781 104.210938 53.535156 105.578125 C 36.605469 106.148438 19.671875 106.945312 2.734375 106.613281 C -5.179688 106.457031 -14.285156 105.425781 -18.703125 98.878906 C -28.957031 83.679688 -7.285156 65.773438 4.730469 60.125 C 15.621094 55.003906 27.640625 52.875 39.5 50.792969 C 61.589844 46.917969 84.671875 43.261719 107.925781 41.378906 Z M 107.925781 41.378906 " fill-opacity="1" fill-rule="nonzero"/></g><g clip-path="url(#id2)"><path fill="rgb(63.919067%, 85.099792%, 32.548523%)" d="M 120.558594 51.300781 C 169.730469 47.316406 219.675781 51.261719 262.695312 77.820312 C 270.226562 82.46875 279.488281 91.511719 277.5 100.851562 C 275.679688 109.425781 264.28125 110.464844 256.265625 112.320312 C 234.042969 117.46875 210.933594 115.628906 188.28125 115.925781 C 147.75 116.394531 106.9375 114.132812 66.167969 115.5 C 49.238281 116.070312 32.304688 116.867188 15.371094 116.535156 C 7.453125 116.378906 -1.648438 115.347656 -6.066406 108.796875 C -16.320312 93.601562 5.351562 75.695312 17.367188 70.046875 C 28.253906 64.925781 40.273438 62.796875 52.132812 60.714844 C 74.222656 56.839844 97.304688 53.183594 120.558594 51.300781 Z M 120.558594 51.300781 " fill-opacity="1" fill-rule="nonzero"/></g><g clip-path="url(#id3)"><path fill="rgb(51.368713%, 81.17981%, 25.489807%)" d="M 133.191406 61.222656 C 182.363281 57.238281 232.308594 61.183594 275.328125 87.738281 C 282.859375 92.390625 292.121094 101.429688 290.136719 110.773438 C 288.3125 119.347656 276.914062 120.386719 268.902344 122.242188 C 246.675781 127.390625 223.570312 125.550781 200.914062 125.847656 C 160.386719 126.316406 119.570312 124.054688 78.804688 125.421875 C 61.875 125.992188 44.941406 126.789062 28.003906 126.457031 C 20.089844 126.300781 10.984375 125.265625 6.566406 118.71875 C -3.6875 103.523438 17.984375 85.617188 30 79.96875 C 40.890625 74.847656 52.910156 72.71875 64.765625 70.636719 C 86.859375 66.761719 109.9375 63.105469 133.191406 61.222656 Z M 133.191406 61.222656 " fill-opacity="1" fill-rule="nonzero"/></g></svg>