<svg xmlns="http://www.w3.org/2000/svg" xmlns:xlink="http://www.w3.org/1999/xlink" width="378" zoomAndPan="magnify" viewBox="0 0 283.5 113.249998" height="151" preserveAspectRatio="xMidYMid meet" version="1.0"><defs><clipPath id="id1"><path d="M 0.683594 53 L 266 53 L 266 112.503906 L 0.683594 112.503906 Z M 0.683594 53 " clip-rule="nonzero"/></clipPath><clipPath id="id2"><path d="M 0.683594 56 L 278 56 L 278 112.503906 L 0.683594 112.503906 Z M 0.683594 56 " clip-rule="nonzero"/></clipPath><clipPath id="id3"><path d="M 3 59 L 282.320312 59 L 282.320312 112.503906 L 3 112.503906 Z M 3 59 " clip-rule="nonzero"/></clipPath></defs><g clip-path="url(#id1)"><path fill="rgb(89.408875%, 99.21875%, 69.018555%)" d="M 107.925781 54.742188 C 157.09375 50.757812 207.039062 54.703125 250.058594 81.257812 C 257.589844 85.910156 266.855469 94.953125 264.867188 104.292969 C 263.042969 112.867188 251.644531 113.90625 243.632812 115.761719 C 221.410156 120.910156 198.300781 119.070312 175.644531 119.367188 C 135.117188 119.835938 94.300781 117.574219 53.535156 118.941406 C 36.605469 119.511719 19.671875 120.308594 2.734375 119.976562 C -5.179688 119.820312 -14.285156 118.785156 -18.703125 112.238281 C -28.957031 97.042969 -7.285156 79.136719 4.730469 73.488281 C 15.621094 68.367188 27.640625 66.238281 39.5 64.15625 C 61.589844 60.28125 84.671875 56.625 107.925781 54.742188 Z M 107.925781 54.742188 " fill-opacity="1" fill-rule="nonzero"/></g><g clip-path="url(#id2)"><path fill="rgb(63.919067%, 85.099792%, 32.548523%)" d="M 120.558594 57.5625 C 169.730469 53.578125 219.675781 57.523438 262.695312 84.082031 C 270.226562 88.730469 279.488281 97.773438 277.5 107.113281 C 275.679688 115.6875 264.28125 116.726562 256.265625 118.582031 C 234.042969 123.730469 210.933594 121.890625 188.28125 122.1875 C 147.75 122.65625 106.9375 120.394531 66.167969 121.761719 C 49.238281 122.332031 32.304688 123.128906 15.371094 122.796875 C 7.453125 122.640625 -1.648438 121.609375 -6.066406 115.0625 C -16.320312 99.863281 5.351562 81.957031 17.367188 76.308594 C 28.253906 71.1875 40.273438 69.058594 52.132812 66.976562 C 74.222656 63.101562 97.304688 59.445312 120.558594 57.5625 Z M 120.558594 57.5625 " fill-opacity="1" fill-rule="nonzero"/></g><g clip-path="url(#id3)"><path fill="rgb(51.368713%, 81.17981%, 25.489807%)" d="M 133.191406 61.222656 C 182.363281 57.238281 232.308594 61.183594 275.328125 87.738281 C 282.859375 92.390625 292.121094 101.429688 290.136719 110.773438 C 288.3125 119.347656 276.914062 120.386719 268.902344 122.242188 C 246.675781 127.390625 223.570312 125.550781 200.914062 125.847656 C 160.386719 126.316406 119.570312 124.054688 78.804688 125.421875 C 61.875 125.992188 44.941406 126.789062 28.003906 126.457031 C 20.089844 126.300781 10.984375 125.265625 6.566406 118.71875 C -3.6875 103.523438 17.984375 85.617188 30 79.96875 C 40.890625 74.847656 52.910156 72.71875 64.765625 70.636719 C 86.859375 66.761719 109.9375 63.105469 133.191406 61.222656 Z M 133.191406 61.222656 " fill-opacity="1" fill-rule="nonzero"/></g></svg>