<svg xmlns="http://www.w3.org/2000/svg" xmlns:xlink="http://www.w3.org/1999/xlink" width="378" zoomAndPan="magnify" viewBox="0 0 283.5 113.249998" height="151" preserveAspectRatio="xMidYMid meet" version="1.0"><defs><clipPath id="id1"><path d="M 0.683594 53 L 228 53 L 228 112.503906 L 0.683594 112.503906 Z M 0.683594 53 " clip-rule="nonzero"/></clipPath><clipPath id="id2"><path d="M 0.683594 56 L 278 56 L 278 112.503906 L 0.683594 112.503906 Z M 0.683594 56 " clip-rule="nonzero"/></clipPath><clipPath id="id3"><path d="M 3 59 L 282.320312 59 L 282.320312 112.503906 L 3 112.503906 Z M 3 59 " clip-rule="nonzero"/></clipPath><clipPath id="id4"><path d="M 0.683594 84 L 282.320312 84 L 282.320312 112.503906 L 0.683594 112.503906 Z M 0.683594 84 " clip-rule="nonzero"/></clipPath><clipPath id="id5"><path d="M -25.363281 67.519531 L 344.566406 103.730469 L 335.984375 191.382812 L -33.941406 155.171875 Z M -25.363281 67.519531 " clip-rule="nonzero"/></clipPath><clipPath id="id6"><path d="M 344.390625 103.710938 L -25.535156 67.5 L -34.117188 155.15625 L 335.8125 191.367188 Z M 344.390625 103.710938 " clip-rule="nonzero"/></clipPath><clipPath id="id7"><path d="M 194.644531 39.503906 L 211.707031 39.503906 L 211.707031 70.851562 L 194.644531 70.851562 Z M 194.644531 39.503906 " clip-rule="nonzero"/></clipPath><clipPath id="id8"><path d="M 183 41 L 211 41 L 211 73 L 183 73 Z M 183 41 " clip-rule="nonzero"/></clipPath><clipPath id="id9"><path d="M 182.847656 40.917969 L 214.109375 43.222656 L 211.914062 72.996094 L 180.652344 70.695312 Z M 182.847656 40.917969 " clip-rule="nonzero"/></clipPath><clipPath id="id10"><path d="M 182.847656 40.917969 L 214.109375 43.222656 L 211.914062 72.996094 L 180.652344 70.695312 Z M 182.847656 40.917969 " clip-rule="nonzero"/></clipPath></defs><g clip-path="url(#id1)"><path fill="rgb(89.408875%, 99.21875%, 69.018555%)" d="M 70.117188 54.742188 C 119.285156 50.757812 169.234375 54.703125 212.25 81.257812 C 219.785156 85.910156 229.046875 94.953125 227.058594 104.292969 C 225.238281 112.867188 213.835938 113.90625 205.824219 115.761719 C 183.601562 120.910156 160.492188 119.070312 137.835938 119.367188 C 97.308594 119.835938 56.492188 117.574219 15.726562 118.941406 C -1.203125 119.511719 -18.136719 120.308594 -35.074219 119.976562 C -42.988281 119.820312 -52.09375 118.785156 -56.511719 112.238281 C -66.761719 97.042969 -45.09375 79.136719 -33.074219 73.488281 C -22.1875 68.367188 -10.167969 66.238281 1.691406 64.15625 C 23.78125 60.28125 46.863281 56.625 70.117188 54.742188 Z M 70.117188 54.742188 " fill-opacity="1" fill-rule="nonzero"/></g><g clip-path="url(#id2)"><path fill="rgb(63.919067%, 85.099792%, 32.548523%)" d="M 120.558594 57.5625 C 169.730469 53.578125 219.675781 57.523438 262.695312 84.082031 C 270.226562 88.730469 279.488281 97.773438 277.5 107.113281 C 275.679688 115.6875 264.28125 116.726562 256.265625 118.582031 C 234.042969 123.730469 210.933594 121.890625 188.28125 122.1875 C 147.75 122.65625 106.9375 120.394531 66.167969 121.761719 C 49.238281 122.332031 32.304688 123.128906 15.371094 122.796875 C 7.453125 122.640625 -1.648438 121.609375 -6.066406 115.0625 C -16.320312 99.863281 5.351562 81.957031 17.367188 76.308594 C 28.253906 71.1875 40.273438 69.058594 52.132812 66.976562 C 74.222656 63.101562 97.304688 59.445312 120.558594 57.5625 Z M 120.558594 57.5625 " fill-opacity="1" fill-rule="nonzero"/></g><g clip-path="url(#id3)"><path fill="rgb(51.368713%, 81.17981%, 25.489807%)" d="M 133.191406 61.222656 C 182.363281 57.238281 232.308594 61.183594 275.328125 87.738281 C 282.859375 92.390625 292.121094 101.429688 290.136719 110.773438 C 288.3125 119.347656 276.914062 120.386719 268.902344 122.242188 C 246.675781 127.390625 223.570312 125.550781 200.914062 125.847656 C 160.386719 126.316406 119.570312 124.054688 78.804688 125.421875 C 61.875 125.992188 44.941406 126.789062 28.003906 126.457031 C 20.089844 126.300781 10.984375 125.265625 6.566406 118.71875 C -3.6875 103.523438 17.984375 85.617188 30 79.96875 C 40.890625 74.847656 52.910156 72.71875 64.765625 70.636719 C 86.859375 66.761719 109.9375 63.105469 133.191406 61.222656 Z M 133.191406 61.222656 " fill-opacity="1" fill-rule="nonzero"/></g><g clip-path="url(#id4)"><g clip-path="url(#id5)"><g clip-path="url(#id6)"><path fill="rgb(43.528748%, 76.858521%, 25.878906%)" d="M 172.628906 91.898438 C 112.042969 80.945312 49.527344 79.800781 -7.152344 107.75 C -17.078125 112.640625 -29.6875 122.8125 -28.363281 134.726562 C -27.148438 145.660156 -13.117188 148.34375 -3.390625 151.636719 C 23.582031 160.769531 52.507812 161.28125 80.613281 164.402344 C 130.894531 169.917969 181.863281 172.054688 232.328125 178.71875 C 253.289062 181.488281 274.222656 184.542969 295.300781 186.1875 C 305.148438 186.957031 316.582031 186.773438 322.871094 179.128906 C 337.464844 161.390625 312.738281 136.382812 298.503906 127.863281 C 285.605469 120.144531 270.9375 116.019531 256.464844 111.980469 C 229.5 104.453125 201.28125 97.078125 172.628906 91.898438 Z M 172.628906 91.898438 " fill-opacity="1" fill-rule="nonzero"/></g></g></g><g clip-path="url(#id7)"><path fill="rgb(95.289612%, 91.758728%, 75.289917%)" d="M 210.6875 68.605469 C 211.28125 67.929688 211.574219 66.90625 211.460938 65.921875 C 211.34375 64.78125 210.4375 63.882812 210.6875 62.648438 C 210.8125 59.960938 211.703125 57.632812 210.90625 55.179688 C 210.066406 51.722656 207.261719 50.675781 205.230469 49.035156 C 204.75 48.871094 204.390625 48.535156 204.066406 48.140625 C 203.6875 47.847656 203.359375 47.484375 203.101562 47.136719 C 202.808594 46.257812 202.964844 45.167969 202.496094 44.308594 C 202.171875 43.753906 201.902344 43.144531 201.433594 42.707031 C 199.3125 42.191406 199.488281 40.082031 198.710938 39.804688 C 197.609375 39.503906 198.34375 41.753906 197.851562 42.445312 C 196.996094 42.480469 196.394531 42.945312 195.949219 43.535156 C 195.6875 44.132812 194.820312 44.074219 194.671875 44.660156 C 194.542969 45.199219 194.964844 45.890625 195.367188 46.304688 C 195.722656 46.699219 196.246094 46.765625 196.507812 47.222656 C 196.917969 48.132812 196.371094 49.378906 196.335938 50.398438 C 196.390625 51.46875 196.246094 52.65625 196.894531 53.515625 C 196.992188 54.214844 197.644531 54.527344 197.875 55.164062 C 198.40625 56.066406 199.242188 57.648438 199.210938 58.722656 C 199.199219 60.402344 198.566406 62.402344 198.308594 64.058594 C 197.707031 64.351562 196.449219 64.046875 196.632812 64.773438 C 197.4375 66.09375 202.140625 65.867188 203.046875 65.945312 C 204.925781 65.898438 206.855469 66.015625 208.6875 65.726562 C 209.773438 65.394531 209.960938 66.257812 209.691406 67.179688 C 209.429688 67.660156 209.074219 68.058594 208.585938 68.34375 C 207.761719 68.652344 206.898438 69.03125 205.933594 69.007812 C 204.894531 69.171875 204.023438 69.042969 202.925781 68.929688 C 202.261719 68.5625 199.433594 68.691406 200.945312 69.496094 C 203.992188 70.851562 209.292969 70.578125 210.6875 68.605469 Z M 210.6875 68.605469 " fill-opacity="1" fill-rule="nonzero"/></g><g clip-path="url(#id8)"><g clip-path="url(#id9)"><g clip-path="url(#id10)"><path fill="rgb(33.329773%, 36.859131%, 37.649536%)" d="M 199.808594 65.230469 C 199.808594 65.230469 204.304688 54.214844 195.300781 51.152344 C 195.300781 51.152344 194.054688 50.199219 193.996094 49.890625 C 193.941406 49.582031 193.117188 48.511719 192.535156 48.203125 C 192.535156 48.203125 192.132812 46.558594 191.808594 46.308594 C 191.808594 46.308594 192.8125 42.476562 191.976562 42 C 191.144531 41.53125 189.730469 43.828125 189.730469 43.828125 C 189.730469 43.828125 187.574219 43.894531 187.316406 43.761719 C 187.0625 43.632812 185.078125 41.34375 184.644531 41.652344 C 184.207031 41.957031 184.1875 42.671875 184.53125 45.699219 C 184.53125 45.699219 182.335938 47.828125 185.433594 51.359375 C 185.433594 51.359375 185.589844 51.75 185.734375 52.433594 C 185.867188 53.121094 185.351562 53.515625 185.949219 55.109375 C 186.550781 56.703125 187.804688 59.121094 187.546875 59.554688 C 187.546875 59.554688 187.316406 64.722656 186.773438 64.90625 C 186.226562 65.089844 185.164062 65.988281 186.304688 66.636719 C 186.304688 66.636719 186.261719 67.308594 186.652344 67.523438 C 187.507812 67.996094 188.429688 67.992188 188.863281 67.6875 C 189.300781 67.378906 189.570312 67.328125 190.011719 66.492188 L 190.898438 66.707031 C 190.828125 66.84375 190.652344 67.226562 190.789062 67.625 C 190.789062 67.625 190.898438 67.949219 191.28125 68.203125 C 191.890625 68.605469 193.941406 68.539062 196.574219 68.027344 C 196.574219 68.027344 197.714844 68.941406 199.746094 68.035156 C 201.773438 67.132812 206.503906 67.449219 207.648438 68.84375 C 208.789062 70.242188 203.824219 70.636719 203.824219 70.636719 C 203.824219 70.636719 202.039062 71.816406 204.238281 72.203125 C 206.433594 72.589844 212.078125 70.753906 210.027344 68.351562 C 207.976562 65.945312 203.617188 64.722656 199.808594 65.230469 Z M 199.808594 65.230469 " fill-opacity="1" fill-rule="nonzero"/></g></g></g></svg>