<svg xmlns="http://www.w3.org/2000/svg" xmlns:xlink="http://www.w3.org/1999/xlink" width="378" zoomAndPan="magnify" viewBox="0 0 283.5 283.500005" height="378" preserveAspectRatio="xMidYMid meet" version="1.0"><defs><clipPath id="id1"><path d="M 110 95 L 277 95 L 277 230.203125 L 110 230.203125 Z M 110 95 " clip-rule="nonzero"/></clipPath></defs><path fill="rgb(6.269836%, 45.489502%, 46.269226%)" d="M 106.625 48.515625 C 111.75 40.589844 120.121094 40.589844 125.339844 48.515625 L 223.683594 198.601562 C 228.8125 206.523438 225.300781 212.917969 215.855469 212.917969 L 16.105469 212.917969 C 6.570312 212.917969 3.058594 206.613281 8.277344 198.601562 Z M 106.625 48.515625 " fill-opacity="1" fill-rule="evenodd"/><g clip-path="url(#id1)"><path fill="rgb(0%, 63.139343%, 52.159119%)" d="M 184.363281 101.90625 C 189.492188 93.800781 197.769531 93.710938 202.988281 101.90625 L 274.519531 215.4375 C 279.648438 223.628906 276.050781 230.203125 266.511719 230.203125 L 120.839844 230.203125 C 111.300781 230.203125 107.703125 223.722656 112.921875 215.4375 Z M 184.363281 101.90625 " fill-opacity="1" fill-rule="evenodd"/></g></svg>