<svg xmlns="http://www.w3.org/2000/svg" xmlns:xlink="http://www.w3.org/1999/xlink" width="378" zoomAndPan="magnify" viewBox="0 0 283.5 113.249998" height="151" preserveAspectRatio="xMidYMid meet" version="1.0"><defs><clipPath id="id1"><path d="M 0.683594 60.6875 L 25 60.6875 L 25 62 L 0.683594 62 Z M 0.683594 60.6875 " clip-rule="nonzero"/></clipPath><clipPath id="id2"><path d="M 0.683594 60.6875 L 39 60.6875 L 39 64 L 0.683594 64 Z M 0.683594 60.6875 " clip-rule="nonzero"/></clipPath><clipPath id="id3"><path d="M 0.683594 60.6875 L 282.320312 60.6875 L 282.320312 69 L 0.683594 69 Z M 0.683594 60.6875 " clip-rule="nonzero"/></clipPath><clipPath id="id4"><path d="M 0.683594 64 L 262 64 L 262 71 L 0.683594 71 Z M 0.683594 64 " clip-rule="nonzero"/></clipPath><clipPath id="id5"><path d="M 40 60.6875 L 57 60.6875 L 57 62 L 40 62 Z M 40 60.6875 " clip-rule="nonzero"/></clipPath><clipPath id="id6"><path d="M 53 61 L 282.320312 61 L 282.320312 69 L 53 69 Z M 53 61 " clip-rule="nonzero"/></clipPath><clipPath id="id7"><path d="M 0.683594 62 L 32 62 L 32 68 L 0.683594 68 Z M 0.683594 62 " clip-rule="nonzero"/></clipPath><clipPath id="id8"><path d="M 22 63 L 282.320312 63 L 282.320312 74 L 22 74 Z M 22 63 " clip-rule="nonzero"/></clipPath><clipPath id="id9"><path d="M 0.683594 67 L 32 67 L 32 70 L 0.683594 70 Z M 0.683594 67 " clip-rule="nonzero"/></clipPath><clipPath id="id10"><path d="M 39 67 L 282.320312 67 L 282.320312 73 L 39 73 Z M 39 67 " clip-rule="nonzero"/></clipPath><clipPath id="id11"><path d="M 179 67 L 282.320312 67 L 282.320312 70 L 179 70 Z M 179 67 " clip-rule="nonzero"/></clipPath><clipPath id="id12"><path d="M 0.683594 68 L 282.320312 68 L 282.320312 79 L 0.683594 79 Z M 0.683594 68 " clip-rule="nonzero"/></clipPath><clipPath id="id13"><path d="M 0.683594 75 L 282.320312 75 L 282.320312 90 L 0.683594 90 Z M 0.683594 75 " clip-rule="nonzero"/></clipPath><clipPath id="id14"><path d="M 0.683594 86 L 282.320312 86 L 282.320312 94 L 0.683594 94 Z M 0.683594 86 " clip-rule="nonzero"/></clipPath><clipPath id="id15"><path d="M 0.683594 69 L 56 69 L 56 75 L 0.683594 75 Z M 0.683594 69 " clip-rule="nonzero"/></clipPath><clipPath id="id16"><path d="M 10 71 L 282.320312 71 L 282.320312 81 L 10 81 Z M 10 71 " clip-rule="nonzero"/></clipPath><clipPath id="id17"><path d="M 0.683594 73 L 31 73 L 31 78 L 0.683594 78 Z M 0.683594 73 " clip-rule="nonzero"/></clipPath><clipPath id="id18"><path d="M 212 74 L 282.320312 74 L 282.320312 77 L 212 77 Z M 212 74 " clip-rule="nonzero"/></clipPath><clipPath id="id19"><path d="M 0.683594 77 L 36 77 L 36 81 L 0.683594 81 Z M 0.683594 77 " clip-rule="nonzero"/></clipPath><clipPath id="id20"><path d="M 0.683594 85 L 55 85 L 55 88 L 0.683594 88 Z M 0.683594 85 " clip-rule="nonzero"/></clipPath><clipPath id="id21"><path d="M 180 89 L 282.320312 89 L 282.320312 92 L 180 92 Z M 180 89 " clip-rule="nonzero"/></clipPath><clipPath id="id22"><path d="M 0.683594 90 L 113 90 L 113 95 L 0.683594 95 Z M 0.683594 90 " clip-rule="nonzero"/></clipPath><clipPath id="id23"><path d="M 0.683594 91 L 39 91 L 39 94 L 0.683594 94 Z M 0.683594 91 " clip-rule="nonzero"/></clipPath><clipPath id="id24"><path d="M 41 77 L 282.320312 77 L 282.320312 84 L 41 84 Z M 41 77 " clip-rule="nonzero"/></clipPath><clipPath id="id25"><path d="M 236 78 L 282.320312 78 L 282.320312 81 L 236 81 Z M 236 78 " clip-rule="nonzero"/></clipPath><clipPath id="id26"><path d="M 0.683594 88 L 282.320312 88 L 282.320312 99 L 0.683594 99 Z M 0.683594 88 " clip-rule="nonzero"/></clipPath><clipPath id="id27"><path d="M 0.683594 81 L 37 81 L 37 85 L 0.683594 85 Z M 0.683594 81 " clip-rule="nonzero"/></clipPath><clipPath id="id28"><path d="M 0.683594 94 L 75 94 L 75 100 L 0.683594 100 Z M 0.683594 94 " clip-rule="nonzero"/></clipPath><clipPath id="id29"><path d="M 0.683594 87 L 51 87 L 51 90 L 0.683594 90 Z M 0.683594 87 " clip-rule="nonzero"/></clipPath><clipPath id="id30"><path d="M 39 84 L 282.320312 84 L 282.320312 89 L 39 89 Z M 39 84 " clip-rule="nonzero"/></clipPath><clipPath id="id31"><path d="M 34 91 L 282.320312 91 L 282.320312 95 L 34 95 Z M 34 91 " clip-rule="nonzero"/></clipPath><clipPath id="id32"><path d="M 54 87 L 282.320312 87 L 282.320312 92 L 54 92 Z M 54 87 " clip-rule="nonzero"/></clipPath><clipPath id="id33"><path d="M 232 88 L 282.320312 88 L 282.320312 90 L 232 90 Z M 232 88 " clip-rule="nonzero"/></clipPath><clipPath id="id34"><path d="M 225 94 L 282.320312 94 L 282.320312 96 L 225 96 Z M 225 94 " clip-rule="nonzero"/></clipPath><clipPath id="id35"><path d="M 33 104 L 282.320312 104 L 282.320312 107 L 33 107 Z M 33 104 " clip-rule="nonzero"/></clipPath><clipPath id="id36"><path d="M 201 96 L 282.320312 96 L 282.320312 99 L 201 99 Z M 201 96 " clip-rule="nonzero"/></clipPath><clipPath id="id37"><path d="M 0.683594 97 L 112 97 L 112 102 L 0.683594 102 Z M 0.683594 97 " clip-rule="nonzero"/></clipPath><clipPath id="id38"><path d="M 0.683594 97 L 282.320312 97 L 282.320312 112.503906 L 0.683594 112.503906 Z M 0.683594 97 " clip-rule="nonzero"/></clipPath><clipPath id="id39"><path d="M 16 98 L 282.320312 98 L 282.320312 103 L 16 103 Z M 16 98 " clip-rule="nonzero"/></clipPath><clipPath id="id40"><path d="M 194 102 L 282.320312 102 L 282.320312 105 L 194 105 Z M 194 102 " clip-rule="nonzero"/></clipPath><clipPath id="id41"><path d="M 0.683594 102 L 112 102 L 112 106 L 0.683594 106 Z M 0.683594 102 " clip-rule="nonzero"/></clipPath></defs><g clip-path="url(#id1)"><path fill="rgb(32.159424%, 78.039551%, 94.898987%)" d="M 0.847656 60.6875 L 24.078125 60.6875 C 16.367188 61.601562 8.585938 61.132812 0.847656 61.59375 L 0.847656 60.6875 " fill-opacity="1" fill-rule="nonzero"/></g><g clip-path="url(#id2)"><path fill="rgb(29.019165%, 73.329163%, 91.758728%)" d="M 24.078125 60.6875 L 35.832031 60.6875 C 36.609375 60.992188 37.371094 61.34375 38.136719 61.683594 C 36.003906 61.839844 33.875 62.070312 31.761719 62.414062 C 21.46875 63.105469 11.15625 63.328125 0.847656 63.605469 L 0.847656 61.59375 C 8.585938 61.132812 16.367188 61.601562 24.078125 60.6875 " fill-opacity="1" fill-rule="nonzero"/></g><g clip-path="url(#id3)"><path fill="rgb(32.548523%, 78.039551%, 94.898987%)" d="M 130.546875 63.472656 C 143.042969 63.839844 155.542969 63.269531 168.035156 63.125 C 155.539062 62.710938 143.039062 63.238281 130.546875 63.472656 Z M 143.664062 61.894531 C 133.574219 62.402344 123.464844 61.855469 113.375 62.378906 C 103.507812 62.449219 93.648438 62.941406 83.789062 63.210938 C 79.101562 63.886719 74.367188 63.054688 69.683594 63.648438 C 62.84375 64.148438 55.980469 64.503906 49.195312 65.554688 C 59.84375 65.46875 70.402344 63.742188 81.058594 63.835938 C 101.050781 62.964844 121.0625 62.5625 141.074219 62.359375 C 149 61.875 156.957031 62.507812 164.867188 61.648438 C 157.792969 61.339844 150.734375 61.980469 143.664062 61.894531 Z M 35.832031 60.6875 L 42.863281 60.6875 C 41.96875 60.996094 41.105469 61.378906 40.238281 61.757812 C 45.664062 62.074219 51.089844 61.597656 56.4375 60.6875 L 289.371094 60.6875 L 289.371094 61.546875 C 279.175781 61.464844 268.988281 61.972656 258.796875 62.28125 C 252.8125 62.769531 246.816406 63.140625 240.8125 63.183594 C 228.574219 63.976562 216.308594 63.320312 204.058594 63.671875 C 195.753906 64.050781 187.464844 62.859375 179.160156 63.121094 C 176.527344 63.132812 174.132812 64.414062 171.519531 64.585938 C 157.25 65.671875 142.929688 65 128.636719 65.476562 C 121.515625 65.699219 114.414062 65.050781 107.3125 64.628906 C 99.703125 65.011719 92.160156 66.332031 84.523438 66.25 C 77.847656 66.738281 71.144531 66.621094 64.46875 67.097656 C 65.4375 66.652344 66.378906 66.144531 67.328125 65.65625 C 62.46875 65.535156 57.636719 66.183594 52.78125 66.230469 C 45.726562 66.570312 38.664062 66.695312 31.621094 67.230469 C 21.363281 67.582031 11.105469 67.871094 0.847656 68.210938 L 0.847656 67.691406 C 9.382812 66.796875 17.976562 66.171875 26.371094 64.3125 C 28.269531 63.984375 30.011719 63.164062 31.761719 62.414062 C 33.875 62.070312 36.003906 61.839844 38.136719 61.683594 C 37.371094 61.34375 36.609375 60.992188 35.832031 60.6875 " fill-opacity="1" fill-rule="nonzero"/></g><g clip-path="url(#id4)"><path fill="rgb(32.548523%, 78.039551%, 94.898987%)" d="M 227.890625 65.183594 C 233.089844 64.945312 238.296875 65.082031 243.503906 64.925781 C 243.171875 65.226562 242.84375 65.53125 242.519531 65.828125 C 248.949219 65.953125 255.386719 65.75 261.8125 66.058594 C 241.1875 66.664062 220.558594 66.921875 199.925781 67.105469 C 187.804688 67.382812 175.675781 67.097656 163.558594 67.550781 C 141.3125 67.640625 119.074219 68.234375 96.832031 68.667969 C 81.355469 69.039062 65.890625 70.019531 50.40625 70.066406 C 52.222656 69.839844 54.027344 69.546875 55.816406 69.164062 C 51.054688 69.277344 46.3125 69.589844 41.550781 69.480469 C 32.90625 70.089844 24.238281 70.277344 15.574219 70.355469 C 10.671875 70.632812 5.761719 70.855469 0.847656 70.808594 L 0.847656 69.90625 C 6.039062 69.792969 11.269531 70.160156 16.417969 69.335938 C 20.6875 68.613281 25.035156 68.875 29.328125 68.46875 C 38.339844 68.464844 47.320312 67.605469 56.332031 67.644531 C 55.378906 67.964844 54.453125 68.355469 53.527344 68.730469 C 59.535156 68.765625 65.535156 68.34375 71.535156 68.15625 C 92.105469 67.3125 112.691406 67.015625 133.273438 66.488281 C 147.800781 66.519531 162.328125 66.328125 176.847656 65.8125 C 185.730469 65.363281 194.632812 65.808594 203.519531 65.449219 C 211.640625 65.113281 219.769531 65.5 227.890625 65.183594 " fill-opacity="1" fill-rule="nonzero"/></g><path fill="rgb(32.548523%, 78.039551%, 94.898987%)" d="M 97.789062 75.722656 C 109.378906 75.445312 120.964844 75.8125 132.546875 76.15625 C 127.601562 76.289062 122.648438 76.210938 117.714844 76.585938 C 110.339844 77.152344 102.941406 76.585938 95.566406 77.039062 C 92.734375 77.285156 89.894531 77.40625 87.054688 77.496094 C 87.488281 77.65625 87.921875 77.816406 88.351562 77.980469 C 85.136719 77.914062 81.90625 77.691406 78.707031 78.078125 C 67.960938 78.988281 57.164062 79.0625 46.394531 79.464844 C 51.164062 78.722656 55.960938 78.105469 60.710938 77.234375 C 66.113281 76.1875 71.65625 76.707031 77.109375 76.105469 C 83.988281 75.441406 90.894531 75.925781 97.789062 75.722656 " fill-opacity="1" fill-rule="nonzero"/><g clip-path="url(#id5)"><path fill="rgb(29.019165%, 73.728943%, 92.158508%)" d="M 42.863281 60.6875 L 56.4375 60.6875 C 51.089844 61.597656 45.664062 62.074219 40.238281 61.757812 C 41.105469 61.378906 41.96875 60.996094 42.863281 60.6875 " fill-opacity="1" fill-rule="nonzero"/></g><path fill="rgb(29.40979%, 75.289917%, 92.939758%)" d="M 143.664062 61.894531 C 150.734375 61.980469 157.792969 61.339844 164.867188 61.648438 C 156.957031 62.507812 149 61.875 141.074219 62.359375 C 121.0625 62.5625 101.050781 62.964844 81.058594 63.835938 C 70.402344 63.742188 59.84375 65.46875 49.195312 65.554688 C 55.980469 64.503906 62.84375 64.148438 69.683594 63.648438 C 74.367188 63.054688 79.101562 63.886719 83.789062 63.210938 C 93.648438 62.941406 103.507812 62.449219 113.375 62.378906 C 123.464844 61.855469 133.574219 62.402344 143.664062 61.894531 " fill-opacity="1" fill-rule="nonzero"/><g clip-path="url(#id6)"><path fill="rgb(31.759644%, 70.588684%, 91.369629%)" d="M 258.796875 62.28125 C 268.988281 61.972656 279.175781 61.464844 289.371094 61.546875 L 289.371094 63.859375 C 274.074219 63.8125 258.789062 64.503906 243.503906 64.925781 C 238.296875 65.082031 233.089844 64.945312 227.890625 65.183594 C 219.769531 65.5 211.640625 65.113281 203.519531 65.449219 C 194.632812 65.808594 185.730469 65.363281 176.847656 65.8125 C 162.328125 66.328125 147.800781 66.519531 133.273438 66.488281 C 112.691406 67.015625 92.105469 67.3125 71.535156 68.15625 C 65.535156 68.34375 59.535156 68.765625 53.527344 68.730469 C 54.453125 68.355469 55.378906 67.964844 56.332031 67.644531 C 59.035156 67.371094 61.757812 67.3125 64.46875 67.097656 C 71.144531 66.621094 77.847656 66.738281 84.523438 66.25 C 92.160156 66.332031 99.703125 65.011719 107.3125 64.628906 C 114.414062 65.050781 121.515625 65.699219 128.636719 65.476562 C 142.929688 65 157.25 65.671875 171.519531 64.585938 C 174.132812 64.414062 176.527344 63.132812 179.160156 63.121094 C 187.464844 62.859375 195.753906 64.050781 204.058594 63.671875 C 216.308594 63.320312 228.574219 63.976562 240.8125 63.183594 C 246.816406 63.140625 252.8125 62.769531 258.796875 62.28125 " fill-opacity="1" fill-rule="nonzero"/></g><g clip-path="url(#id7)"><path fill="rgb(34.118652%, 78.819275%, 95.689392%)" d="M 0.847656 63.605469 C 11.15625 63.328125 21.46875 63.105469 31.761719 62.414062 C 30.011719 63.164062 28.269531 63.984375 26.371094 64.3125 C 17.976562 66.171875 9.382812 66.796875 0.847656 67.691406 L 0.847656 63.605469 " fill-opacity="1" fill-rule="nonzero"/></g><path fill="rgb(29.40979%, 74.119568%, 92.939758%)" d="M 130.546875 63.472656 C 143.039062 63.238281 155.539062 62.710938 168.035156 63.125 C 155.542969 63.269531 143.042969 63.839844 130.546875 63.472656 " fill-opacity="1" fill-rule="nonzero"/><g clip-path="url(#id8)"><path fill="rgb(34.118652%, 78.819275%, 95.689392%)" d="M 243.503906 64.925781 C 258.789062 64.503906 274.074219 63.8125 289.371094 63.859375 L 289.371094 67.324219 C 287.277344 67.3125 285.183594 67.292969 283.097656 67.300781 C 267.679688 67.074219 252.277344 67.960938 236.863281 67.976562 C 228.203125 68.4375 219.527344 67.976562 210.871094 68.363281 C 192.3125 68.828125 173.757812 68.144531 155.203125 68.164062 C 144.671875 67.9375 134.148438 68.574219 123.621094 68.558594 C 124.160156 68.839844 124.703125 69.109375 125.257812 69.375 C 111.09375 69.035156 96.941406 69.980469 82.785156 70.238281 C 71.921875 70.640625 61.054688 70.933594 50.191406 71.429688 C 46.582031 71.597656 42.941406 71.53125 39.355469 72.042969 C 49.527344 72.484375 59.695312 71.5625 69.871094 71.894531 C 56.734375 72.597656 43.570312 72.792969 30.441406 73.535156 C 27.925781 73.503906 25.410156 73.53125 22.894531 73.546875 C 25.820312 72.476562 28.871094 71.648438 32 71.558594 C 34.363281 71.605469 36.757812 72.09375 39.097656 71.550781 C 42.839844 70.886719 46.628906 70.507812 50.40625 70.066406 C 65.890625 70.019531 81.355469 69.039062 96.832031 68.667969 C 119.074219 68.234375 141.3125 67.640625 163.558594 67.550781 C 175.675781 67.097656 187.804688 67.382812 199.925781 67.105469 C 220.558594 66.921875 241.1875 66.664062 261.8125 66.058594 C 255.386719 65.75 248.949219 65.953125 242.519531 65.828125 C 242.84375 65.53125 243.171875 65.226562 243.503906 64.925781 " fill-opacity="1" fill-rule="nonzero"/></g><path fill="rgb(34.118652%, 78.819275%, 95.689392%)" d="M 52.78125 66.230469 C 57.636719 66.183594 62.46875 65.535156 67.328125 65.65625 C 66.378906 66.144531 65.4375 66.652344 64.46875 67.097656 C 61.757812 67.3125 59.035156 67.371094 56.332031 67.644531 C 47.320312 67.605469 38.339844 68.464844 29.328125 68.46875 C 30.113281 68.101562 30.851562 67.640625 31.621094 67.230469 C 38.664062 66.695312 45.726562 66.570312 52.78125 66.230469 " fill-opacity="1" fill-rule="nonzero"/><g clip-path="url(#id9)"><path fill="rgb(38.038635%, 79.998779%, 93.328857%)" d="M 0.847656 68.210938 C 11.105469 67.871094 21.363281 67.582031 31.621094 67.230469 C 30.851562 67.640625 30.113281 68.101562 29.328125 68.46875 C 25.035156 68.875 20.6875 68.613281 16.417969 69.335938 C 11.269531 70.160156 6.039062 69.792969 0.847656 69.90625 L 0.847656 68.210938 " fill-opacity="1" fill-rule="nonzero"/></g><g clip-path="url(#id10)"><path fill="rgb(37.649536%, 79.998779%, 93.328857%)" d="M 236.863281 67.976562 C 252.277344 67.960938 267.679688 67.074219 283.097656 67.300781 C 275.125 68.023438 267.121094 68.1875 259.125 68.285156 C 248.34375 68.851562 237.550781 69.167969 226.757812 69.089844 C 210.960938 69.714844 195.144531 68.90625 179.355469 69.808594 C 168.4375 69.910156 157.519531 70.160156 146.601562 70.308594 C 137.265625 70.742188 127.921875 70.324219 118.585938 70.585938 C 102.347656 71.09375 86.109375 71.542969 69.871094 71.894531 C 59.695312 71.5625 49.527344 72.484375 39.355469 72.042969 C 42.941406 71.53125 46.582031 71.597656 50.191406 71.429688 C 61.054688 70.933594 71.921875 70.640625 82.785156 70.238281 C 96.941406 69.980469 111.09375 69.035156 125.257812 69.375 C 124.703125 69.109375 124.160156 68.839844 123.621094 68.558594 C 134.148438 68.574219 144.671875 67.9375 155.203125 68.164062 C 173.757812 68.144531 192.3125 68.828125 210.871094 68.363281 C 219.527344 67.976562 228.203125 68.4375 236.863281 67.976562 " fill-opacity="1" fill-rule="nonzero"/></g><g clip-path="url(#id11)"><path fill="rgb(32.939148%, 78.42865%, 94.509888%)" d="M 259.125 68.285156 C 267.121094 68.1875 275.125 68.023438 283.097656 67.300781 C 285.183594 67.292969 287.277344 67.3125 289.371094 67.324219 L 289.371094 68.777344 C 273.785156 68.542969 258.214844 69.382812 242.628906 69.351562 C 221.539062 69.597656 200.449219 70.222656 179.355469 69.808594 C 195.144531 68.90625 210.960938 69.714844 226.757812 69.089844 C 237.550781 69.167969 248.34375 68.851562 259.125 68.285156 " fill-opacity="1" fill-rule="nonzero"/></g><g clip-path="url(#id12)"><path fill="rgb(38.038635%, 79.998779%, 93.328857%)" d="M 242.628906 69.351562 C 258.214844 69.382812 273.785156 68.542969 289.371094 68.777344 L 289.371094 74.257812 C 274.847656 74.328125 260.320312 74.160156 245.804688 73.632812 C 234.984375 72.894531 224.132812 72.878906 213.292969 72.726562 C 200.480469 72.027344 187.644531 72.421875 174.828125 71.960938 C 162.566406 71.984375 150.304688 71.828125 138.050781 72.054688 C 141.414062 72.195312 144.792969 72.203125 148.160156 72.421875 C 141.78125 73.167969 135.355469 72.726562 128.953125 72.800781 C 121.671875 72.691406 114.398438 73.152344 107.121094 72.960938 C 91.730469 73.773438 76.34375 74.628906 61 76.113281 C 52.609375 76.71875 44.226562 77.492188 35.820312 77.9375 C 24.160156 77.976562 12.5 78.449219 0.847656 78.894531 L 0.847656 76.246094 C 4.746094 77.015625 8.765625 77.320312 12.695312 76.613281 C 18.628906 75.675781 24.882812 76.164062 30.441406 73.535156 C 43.570312 72.792969 56.734375 72.597656 69.871094 71.894531 C 86.109375 71.542969 102.347656 71.09375 118.585938 70.585938 C 127.921875 70.324219 137.265625 70.742188 146.601562 70.308594 C 157.519531 70.160156 168.4375 69.910156 179.355469 69.808594 C 200.449219 70.222656 221.539062 69.597656 242.628906 69.351562 " fill-opacity="1" fill-rule="nonzero"/></g><g clip-path="url(#id13)"><path fill="rgb(38.038635%, 79.998779%, 93.328857%)" d="M 78.59375 83.988281 C 73.535156 84.6875 68.371094 84.058594 63.347656 85.082031 C 68.34375 84.921875 73.347656 84.9375 78.34375 84.6875 C 86.894531 84.046875 95.480469 84.617188 104.046875 84.359375 C 104.019531 84.210938 103.972656 83.917969 103.945312 83.773438 C 107.882812 84.160156 111.828125 83.699219 115.773438 83.964844 C 123.855469 84.339844 131.9375 83.6875 140.023438 83.671875 C 134.933594 82.84375 129.753906 83.316406 124.625 83.207031 C 109.273438 83.078125 93.925781 83.40625 78.59375 83.988281 Z M 160.6875 83.445312 C 155.488281 83.667969 150.304688 83.058594 145.105469 83.179688 C 145.109375 83.335938 145.113281 83.636719 145.113281 83.789062 C 158.863281 83.675781 172.621094 84.042969 186.363281 83.527344 C 205.742188 83.359375 225.121094 83.785156 244.492188 83.335938 C 242.378906 82.800781 240.167969 82.929688 238.011719 82.890625 C 221.179688 82.96875 204.351562 82.867188 187.519531 82.9375 C 178.582031 83.4375 169.625 82.964844 160.6875 83.445312 Z M 138.1875 82.308594 C 138.1875 82.464844 138.183594 82.769531 138.183594 82.925781 C 151.210938 82.816406 164.246094 83.128906 177.269531 82.757812 C 164.242188 82.445312 151.207031 82.855469 138.1875 82.308594 Z M 117.714844 76.585938 C 130.980469 76.476562 144.25 76.339844 157.511719 76 C 172.902344 75.960938 188.289062 76.023438 203.679688 75.964844 C 208.410156 75.910156 213.117188 76.492188 217.847656 76.597656 C 225.230469 77.289062 232.636719 76.484375 240.03125 76.558594 C 256.480469 76.578125 272.925781 76.5625 289.371094 76.566406 L 289.371094 77.992188 C 280.722656 78.523438 272.054688 78.097656 263.40625 78.511719 C 254.476562 78.773438 245.542969 78.398438 236.621094 78.664062 C 231.078125 79.320312 225.472656 79.597656 219.902344 79.148438 C 206.636719 78.125 193.324219 78.75 180.039062 78.792969 C 173.496094 78.578125 166.953125 78.175781 160.402344 78.289062 C 148.296875 78.414062 136.183594 78.054688 124.085938 78.542969 C 120.042969 79.152344 115.949219 79.308594 111.863281 79.171875 C 112.1875 79.011719 112.515625 78.855469 112.847656 78.707031 C 107.519531 79.40625 102.148438 78.722656 96.804688 78.949219 C 98.625 79.097656 100.449219 79.21875 102.269531 79.371094 C 98.355469 79.75 94.425781 79.816406 90.507812 80.105469 C 74.988281 79.675781 59.492188 80.769531 44.015625 81.734375 C 54.484375 82.066406 64.960938 81.488281 75.414062 80.957031 C 64.097656 82.164062 52.734375 82.871094 41.382812 83.648438 C 55.289062 83.996094 69.15625 82.5 83.058594 82.570312 C 92.203125 82.5625 101.339844 81.984375 110.484375 82.046875 C 115.585938 82.121094 120.679688 81.671875 125.78125 81.800781 C 133.847656 82.140625 141.917969 81.648438 149.988281 81.941406 C 173.066406 81.085938 196.167969 81.621094 219.257812 81.480469 C 242.625 80.902344 266 81.300781 289.371094 81.191406 L 289.371094 84.941406 C 276.097656 85.042969 262.824219 84.695312 249.558594 85.195312 C 245.058594 85.296875 240.558594 85.207031 236.0625 85.160156 C 226.523438 84.746094 216.96875 84.882812 207.433594 85.21875 C 190.234375 85.242188 173.035156 85.171875 155.839844 85.414062 C 149.738281 85.207031 143.625 85.085938 137.523438 85.394531 C 131.4375 85.453125 125.355469 85.664062 119.269531 85.816406 C 114.191406 85.476562 109.09375 85.402344 104.011719 85.660156 C 97.8125 85.984375 91.601562 85.570312 85.410156 85.960938 C 73.746094 87.332031 61.972656 86.917969 50.265625 87.621094 C 33.789062 87.957031 17.320312 88.550781 0.847656 89.011719 L 0.847656 87.863281 C 11.980469 87.402344 23.117188 87.304688 34.253906 87.109375 C 40.851562 86.519531 47.476562 86.234375 54.074219 85.65625 C 46.679688 85.425781 39.285156 86.019531 31.890625 86.078125 C 33.039062 85.847656 34.1875 85.628906 35.335938 85.382812 C 28.828125 85.65625 22.3125 85.523438 15.808594 85.800781 C 10.828125 86.226562 5.832031 85.710938 0.847656 86.097656 L 0.847656 84.394531 C 6.667969 84.058594 12.527344 84.351562 18.324219 83.632812 C 22.433594 83.15625 26.574219 82.949219 30.683594 82.429688 C 26.464844 82.320312 22.253906 82.457031 18.039062 82.558594 C 24.167969 81.902344 30.355469 81.894531 36.464844 81.046875 C 24.585938 81.136719 12.71875 81.738281 0.847656 82.085938 L 0.847656 80.355469 C 5.6875 80.355469 10.515625 79.992188 15.351562 79.792969 C 13.832031 80.007812 12.328125 80.285156 10.816406 80.558594 C 22.683594 80.359375 34.546875 80.121094 46.394531 79.464844 C 57.164062 79.0625 67.960938 78.988281 78.707031 78.078125 C 81.90625 77.691406 85.136719 77.914062 88.351562 77.980469 C 87.921875 77.816406 87.488281 77.65625 87.054688 77.496094 C 89.894531 77.40625 92.734375 77.285156 95.566406 77.039062 C 102.941406 76.585938 110.339844 77.152344 117.714844 76.585938 " fill-opacity="1" fill-rule="nonzero"/></g><g clip-path="url(#id14)"><path fill="rgb(38.038635%, 79.998779%, 93.328857%)" d="M 118.28125 87.023438 C 146.839844 86.742188 175.414062 87.3125 203.96875 86.664062 C 232.4375 86.679688 260.902344 86.667969 289.371094 86.671875 L 289.371094 87.539062 C 253.6875 87.550781 218.007812 87.511719 182.324219 87.554688 C 162.710938 88.347656 143.078125 86.890625 123.46875 87.847656 C 116.480469 88.3125 109.480469 87.546875 102.503906 88.214844 C 95.777344 88.378906 89.070312 88.933594 82.335938 88.886719 C 75.460938 89.707031 68.5 89.355469 61.628906 90.160156 C 59.296875 90.921875 56.882812 91.375 54.433594 91.53125 C 45.144531 91.34375 35.917969 92.679688 26.628906 92.730469 C 18.054688 93.457031 9.4375 93.269531 0.847656 93.621094 L 0.847656 93.027344 C 13.335938 93.382812 25.777344 92.136719 38.214844 91.195312 C 25.761719 90.816406 13.304688 91.6875 0.847656 91.585938 L 0.847656 89.871094 C 11.140625 89.84375 21.429688 89.257812 31.722656 89.253906 C 34.296875 89.265625 36.875 89.121094 39.441406 88.929688 C 50.996094 88.46875 62.558594 88.507812 74.109375 87.992188 C 88.828125 87.46875 103.566406 87.722656 118.28125 87.023438 " fill-opacity="1" fill-rule="nonzero"/></g><g clip-path="url(#id15)"><path fill="rgb(38.038635%, 79.998779%, 93.328857%)" d="M 41.550781 69.480469 C 46.3125 69.589844 51.054688 69.277344 55.816406 69.164062 C 54.027344 69.546875 52.222656 69.839844 50.40625 70.066406 C 46.628906 70.507812 42.839844 70.886719 39.097656 71.550781 C 36.757812 72.09375 34.363281 71.605469 32 71.558594 C 28.871094 71.648438 25.820312 72.476562 22.894531 73.546875 C 15.5625 74.082031 8.199219 74.136719 0.847656 74.285156 L 0.847656 70.808594 C 5.761719 70.855469 10.671875 70.632812 15.574219 70.355469 C 24.238281 70.277344 32.90625 70.089844 41.550781 69.480469 " fill-opacity="1" fill-rule="nonzero"/></g><g clip-path="url(#id16)"><path fill="rgb(34.118652%, 78.819275%, 95.689392%)" d="M 121.542969 74.816406 C 124.273438 75.257812 127.058594 75.140625 129.816406 75.144531 C 136.109375 75.046875 142.40625 75.277344 148.699219 74.976562 C 144.554688 74.265625 140.339844 74.605469 136.164062 74.542969 C 131.289062 74.589844 126.402344 74.351562 121.542969 74.816406 Z M 159.035156 73.984375 C 158.929688 74.121094 158.722656 74.402344 158.617188 74.539062 C 163.847656 74.558594 169.078125 74.453125 174.300781 74.722656 C 184.382812 75.191406 194.460938 74.371094 204.542969 74.542969 C 208.964844 74.519531 213.398438 74.742188 217.804688 74.253906 C 216.488281 73.960938 215.113281 73.964844 213.777344 73.933594 C 195.53125 74.019531 177.28125 73.925781 159.035156 73.984375 Z M 138.050781 72.054688 C 150.304688 71.828125 162.566406 71.984375 174.828125 71.960938 C 187.644531 72.421875 200.480469 72.027344 213.292969 72.726562 C 224.132812 72.878906 234.984375 72.894531 245.804688 73.632812 C 260.320312 74.160156 274.847656 74.328125 289.371094 74.257812 L 289.371094 74.839844 C 271.617188 74.695312 253.878906 75.382812 236.128906 75.519531 C 228.21875 75.886719 220.296875 75.449219 212.390625 75.902344 C 214.203125 76.128906 216.023438 76.378906 217.847656 76.597656 C 213.117188 76.492188 208.410156 75.910156 203.679688 75.964844 C 188.289062 76.023438 172.902344 75.960938 157.511719 76 C 144.25 76.339844 130.980469 76.476562 117.714844 76.585938 C 122.648438 76.210938 127.601562 76.289062 132.546875 76.15625 C 120.964844 75.8125 109.378906 75.445312 97.789062 75.722656 C 90.894531 75.925781 83.988281 75.441406 77.109375 76.105469 C 71.65625 76.707031 66.113281 76.1875 60.710938 77.234375 C 55.960938 78.105469 51.164062 78.722656 46.394531 79.464844 C 34.546875 80.121094 22.683594 80.359375 10.816406 80.558594 C 12.328125 80.285156 13.832031 80.007812 15.351562 79.792969 C 22.164062 79.089844 29 78.597656 35.820312 77.9375 C 44.226562 77.492188 52.609375 76.71875 61 76.113281 C 76.34375 74.628906 91.730469 73.773438 107.121094 72.960938 C 114.398438 73.152344 121.671875 72.691406 128.953125 72.800781 C 135.355469 72.726562 141.78125 73.167969 148.160156 72.421875 C 144.792969 72.203125 141.414062 72.195312 138.050781 72.054688 " fill-opacity="1" fill-rule="nonzero"/></g><g clip-path="url(#id17)"><path fill="rgb(40.388489%, 80.389404%, 89.408875%)" d="M 22.894531 73.546875 C 25.410156 73.53125 27.925781 73.503906 30.441406 73.535156 C 24.882812 76.164062 18.628906 75.675781 12.695312 76.613281 C 8.765625 77.320312 4.746094 77.015625 0.847656 76.246094 L 0.847656 74.285156 C 8.199219 74.136719 15.5625 74.082031 22.894531 73.546875 " fill-opacity="1" fill-rule="nonzero"/></g><path fill="rgb(37.249756%, 79.60968%, 93.728638%)" d="M 159.035156 73.984375 C 177.28125 73.925781 195.53125 74.019531 213.777344 73.933594 C 215.113281 73.964844 216.488281 73.960938 217.804688 74.253906 C 213.398438 74.742188 208.964844 74.519531 204.542969 74.542969 C 194.460938 74.371094 184.382812 75.191406 174.300781 74.722656 C 169.078125 74.453125 163.847656 74.558594 158.617188 74.539062 C 158.722656 74.402344 158.929688 74.121094 159.035156 73.984375 " fill-opacity="1" fill-rule="nonzero"/><path fill="rgb(37.249756%, 79.60968%, 93.728638%)" d="M 121.542969 74.816406 C 126.402344 74.351562 131.289062 74.589844 136.164062 74.542969 C 140.339844 74.605469 144.554688 74.265625 148.699219 74.976562 C 142.40625 75.277344 136.109375 75.046875 129.816406 75.144531 C 127.058594 75.140625 124.273438 75.257812 121.542969 74.816406 " fill-opacity="1" fill-rule="nonzero"/><g clip-path="url(#id18)"><path fill="rgb(32.548523%, 78.42865%, 95.689392%)" d="M 236.128906 75.519531 C 253.878906 75.382812 271.617188 74.695312 289.371094 74.839844 L 289.371094 76.566406 C 272.925781 76.5625 256.480469 76.578125 240.03125 76.558594 C 232.636719 76.484375 225.230469 77.289062 217.847656 76.597656 C 216.023438 76.378906 214.203125 76.128906 212.390625 75.902344 C 220.296875 75.449219 228.21875 75.886719 236.128906 75.519531 " fill-opacity="1" fill-rule="nonzero"/></g><g clip-path="url(#id19)"><path fill="rgb(40.388489%, 80.389404%, 89.408875%)" d="M 0.847656 78.894531 C 12.5 78.449219 24.160156 77.976562 35.820312 77.9375 C 29 78.597656 22.164062 79.089844 15.351562 79.792969 C 10.515625 79.992188 5.6875 80.355469 0.847656 80.355469 L 0.847656 78.894531 " fill-opacity="1" fill-rule="nonzero"/></g><g clip-path="url(#id20)"><path fill="rgb(40.388489%, 80.389404%, 89.408875%)" d="M 15.808594 85.800781 C 22.3125 85.523438 28.828125 85.65625 35.335938 85.382812 C 34.1875 85.628906 33.039062 85.847656 31.890625 86.078125 C 39.285156 86.019531 46.679688 85.425781 54.074219 85.65625 C 47.476562 86.234375 40.851562 86.519531 34.253906 87.109375 C 23.117188 87.304688 11.980469 87.402344 0.847656 87.863281 L 0.847656 86.097656 C 5.832031 85.710938 10.828125 86.226562 15.808594 85.800781 " fill-opacity="1" fill-rule="nonzero"/></g><g clip-path="url(#id21)"><path fill="rgb(40.388489%, 80.389404%, 89.408875%)" d="M 180.171875 90.429688 C 187.976562 89.527344 195.84375 89.910156 203.679688 89.851562 C 214.875 89.785156 226.074219 90.003906 237.265625 89.6875 C 252.285156 90.214844 267.308594 89.910156 282.328125 89.730469 C 284.671875 89.75 287.019531 89.832031 289.371094 89.871094 L 289.371094 90.933594 C 280.132812 90.898438 270.894531 91.148438 261.664062 90.945312 C 252.914062 90.683594 244.164062 91.367188 235.421875 91.050781 C 227.128906 90.898438 218.832031 91.152344 210.546875 90.828125 C 200.425781 90.417969 190.28125 91.125 180.171875 90.429688 " fill-opacity="1" fill-rule="nonzero"/></g><g clip-path="url(#id22)"><path fill="rgb(40.388489%, 80.389404%, 89.408875%)" d="M 107.976562 90.429688 C 109.4375 90.460938 110.890625 90.558594 112.351562 90.636719 C 102.785156 91.800781 93.125 91.164062 83.515625 91.40625 C 84.46875 91.554688 85.410156 91.675781 86.371094 91.8125 C 81.75 91.875 77.125 91.832031 72.507812 92.035156 C 52.574219 93.171875 32.640625 94.324219 12.675781 94.445312 C 8.730469 94.5 4.796875 94.984375 0.847656 94.832031 L 0.847656 93.621094 C 9.4375 93.269531 18.054688 93.457031 26.628906 92.730469 C 35.917969 92.679688 45.144531 91.34375 54.433594 91.53125 C 59.84375 91.558594 65.242188 91.183594 70.648438 91.125 C 76.242188 91.402344 81.8125 90.617188 87.402344 90.691406 C 94.261719 90.6875 101.128906 90.890625 107.976562 90.429688 " fill-opacity="1" fill-rule="nonzero"/></g><g clip-path="url(#id23)"><path fill="rgb(40.388489%, 80.389404%, 89.408875%)" d="M 0.847656 91.585938 C 13.304688 91.6875 25.761719 90.816406 38.214844 91.195312 C 25.777344 92.136719 13.335938 93.382812 0.847656 93.027344 L 0.847656 91.585938 " fill-opacity="1" fill-rule="nonzero"/></g><g clip-path="url(#id24)"><path fill="rgb(38.038635%, 79.998779%, 93.328857%)" d="M 263.40625 78.511719 C 272.054688 78.097656 280.722656 78.523438 289.371094 77.992188 L 289.371094 78.851562 C 280.816406 78.953125 272.265625 79.222656 263.710938 79.242188 C 254.515625 79.894531 245.308594 78.847656 236.117188 79.328125 C 247.394531 80.433594 258.75 80.125 270.0625 80.496094 C 276.496094 80.675781 282.941406 80.546875 289.371094 80.917969 L 289.371094 81.191406 C 266 81.300781 242.625 80.902344 219.257812 81.480469 C 196.167969 81.621094 173.066406 81.085938 149.988281 81.941406 C 141.917969 81.648438 133.847656 82.140625 125.78125 81.800781 C 120.679688 81.671875 115.585938 82.121094 110.484375 82.046875 C 101.339844 81.984375 92.203125 82.5625 83.058594 82.570312 C 69.15625 82.5 55.289062 83.996094 41.382812 83.648438 C 52.734375 82.871094 64.097656 82.164062 75.414062 80.957031 C 64.960938 81.488281 54.484375 82.066406 44.015625 81.734375 C 59.492188 80.769531 74.988281 79.675781 90.507812 80.105469 C 100.914062 80.140625 111.332031 80.089844 121.734375 79.753906 C 129.957031 79.675781 138.175781 79.863281 146.390625 79.613281 C 154.019531 79.589844 161.652344 79.953125 169.28125 79.628906 C 179.875 79.175781 190.488281 79.75 201.078125 79.242188 C 207.351562 79.109375 213.628906 79.140625 219.902344 79.148438 C 225.472656 79.597656 231.078125 79.320312 236.621094 78.664062 C 245.542969 78.398438 254.476562 78.773438 263.40625 78.511719 " fill-opacity="1" fill-rule="nonzero"/></g><path fill="rgb(34.118652%, 78.819275%, 95.689392%)" d="M 111.863281 79.171875 C 115.949219 79.308594 120.042969 79.152344 124.085938 78.542969 C 136.183594 78.054688 148.296875 78.414062 160.402344 78.289062 C 166.953125 78.175781 173.496094 78.578125 180.039062 78.792969 C 193.324219 78.75 206.636719 78.125 219.902344 79.148438 C 213.628906 79.140625 207.351562 79.109375 201.078125 79.242188 C 190.488281 79.75 179.875 79.175781 169.28125 79.628906 C 161.652344 79.953125 154.019531 79.589844 146.390625 79.613281 C 138.175781 79.863281 129.957031 79.675781 121.734375 79.753906 C 111.332031 80.089844 100.914062 80.140625 90.507812 80.105469 C 94.425781 79.816406 98.355469 79.75 102.269531 79.371094 C 100.449219 79.21875 98.625 79.097656 96.804688 78.949219 C 102.148438 78.722656 107.519531 79.40625 112.847656 78.707031 C 112.515625 78.855469 112.1875 79.011719 111.863281 79.171875 " fill-opacity="1" fill-rule="nonzero"/><g clip-path="url(#id25)"><path fill="rgb(38.038635%, 79.998779%, 92.549133%)" d="M 263.710938 79.242188 C 272.265625 79.222656 280.816406 78.953125 289.371094 78.851562 L 289.371094 80.917969 C 282.941406 80.546875 276.496094 80.675781 270.0625 80.496094 C 258.75 80.125 247.394531 80.433594 236.117188 79.328125 C 245.308594 78.847656 254.515625 79.894531 263.710938 79.242188 " fill-opacity="1" fill-rule="nonzero"/></g><g clip-path="url(#id26)"><path fill="rgb(38.038635%, 79.998779%, 92.549133%)" d="M 88.992188 89.667969 C 101.441406 89.199219 113.902344 89.496094 126.351562 89.023438 C 155.203125 88.925781 184.058594 89.011719 212.910156 88.976562 C 219.691406 89.128906 226.46875 89.390625 233.253906 89.265625 C 234.582031 89.390625 235.925781 89.5625 237.265625 89.6875 C 226.074219 90.003906 214.875 89.785156 203.679688 89.851562 C 195.84375 89.910156 187.976562 89.527344 180.171875 90.429688 C 190.28125 91.125 200.425781 90.417969 210.546875 90.828125 C 218.832031 91.152344 227.128906 90.898438 235.421875 91.050781 C 244.164062 91.367188 252.914062 90.683594 261.664062 90.945312 C 270.894531 91.148438 280.132812 90.898438 289.371094 90.933594 L 289.371094 91.9375 C 282.929688 92.34375 276.480469 91.789062 270.039062 91.855469 C 243.109375 91.898438 216.179688 91.832031 189.25 91.886719 C 176.175781 92.347656 163.09375 92.089844 150.011719 92.167969 C 140.105469 92.3125 130.199219 91.503906 120.300781 92.078125 C 108.75 92.097656 97.214844 92.472656 85.667969 92.480469 C 68.503906 93.183594 51.304688 93.144531 34.175781 94.617188 C 40.765625 94.914062 47.347656 94.363281 53.9375 94.457031 C 57.984375 94.535156 62.003906 93.949219 66.046875 93.910156 C 85.042969 93.882812 104.03125 92.929688 123.027344 93.09375 C 121.445312 93.1875 119.859375 93.273438 118.28125 93.351562 C 118.28125 93.492188 118.277344 93.777344 118.277344 93.914062 C 139.910156 93.355469 161.558594 93.734375 183.195312 93.550781 C 188.671875 93.296875 194.144531 93.523438 199.621094 93.515625 C 203.179688 93.304688 206.738281 92.996094 210.3125 93.015625 C 236.664062 93.027344 263.015625 93.019531 289.371094 93.023438 L 289.371094 94.753906 C 274.097656 94.808594 258.828125 94.632812 243.5625 94.878906 C 237.441406 94.863281 231.238281 94.246094 225.1875 95.480469 C 246.578125 96.160156 267.972656 95.839844 289.371094 95.910156 L 289.371094 97.066406 C 276.769531 97 264.171875 97.265625 251.578125 96.804688 C 238.425781 96.734375 225.277344 96.796875 212.128906 96.769531 C 211.972656 96.503906 211.816406 96.230469 211.664062 95.964844 C 196.21875 95.375 180.757812 95.707031 165.304688 95.621094 C 152.066406 95.683594 138.820312 95.496094 125.582031 95.714844 C 115.308594 96.367188 105.007812 95.710938 94.734375 96.425781 C 95.28125 96.742188 95.832031 97.054688 96.398438 97.332031 C 86.09375 97.003906 75.78125 97.730469 65.472656 97.6875 C 52.707031 98.097656 39.9375 98.320312 27.167969 98.5625 C 21.617188 98.46875 16.074219 98.878906 10.523438 98.738281 C 19.152344 97.984375 27.8125 97.675781 36.445312 97.011719 C 35.953125 96.902344 34.964844 96.6875 34.46875 96.582031 C 38.664062 96.3125 42.871094 96.347656 47.070312 96.269531 C 43.65625 96.757812 40.203125 96.792969 36.765625 97.023438 C 39.78125 97.382812 42.832031 97.375 45.84375 96.988281 C 54.183594 96.359375 62.578125 97.265625 70.90625 96.414062 C 75.480469 96.089844 80.074219 96.4375 84.652344 96.132812 C 81.191406 95.890625 77.734375 95.664062 74.261719 95.699219 C 68.226562 95.460938 62.207031 96.484375 56.175781 95.925781 C 62.191406 95.335938 68.242188 95.441406 74.257812 94.855469 C 65.359375 94.46875 56.480469 95.40625 47.585938 95.351562 C 33.832031 95.640625 20.078125 96.15625 6.324219 96.195312 C 4.496094 96.269531 2.636719 96.238281 0.847656 96.65625 L 0.847656 94.832031 C 4.796875 94.984375 8.730469 94.5 12.675781 94.445312 C 32.640625 94.324219 52.574219 93.171875 72.507812 92.035156 C 77.125 91.832031 81.75 91.875 86.371094 91.8125 C 85.410156 91.675781 84.46875 91.554688 83.515625 91.40625 C 93.125 91.164062 102.785156 91.800781 112.351562 90.636719 C 110.890625 90.558594 109.4375 90.460938 107.976562 90.429688 C 96.082031 89.652344 84.160156 90.464844 72.253906 90.285156 C 77.808594 89.613281 83.414062 89.96875 88.992188 89.667969 " fill-opacity="1" fill-rule="nonzero"/></g><g clip-path="url(#id27)"><path fill="rgb(39.99939%, 80.389404%, 89.7995%)" d="M 0.847656 82.085938 C 12.71875 81.738281 24.585938 81.136719 36.464844 81.046875 C 30.355469 81.894531 24.167969 81.902344 18.039062 82.558594 C 22.253906 82.457031 26.464844 82.320312 30.683594 82.429688 C 26.574219 82.949219 22.433594 83.15625 18.324219 83.632812 C 12.527344 84.351562 6.667969 84.058594 0.847656 84.394531 L 0.847656 82.085938 " fill-opacity="1" fill-rule="nonzero"/></g><g clip-path="url(#id28)"><path fill="rgb(39.99939%, 80.389404%, 89.7995%)" d="M 47.585938 95.351562 C 56.480469 95.40625 65.359375 94.46875 74.257812 94.855469 C 68.242188 95.441406 62.191406 95.335938 56.175781 95.925781 C 53.144531 96.105469 50.105469 96.148438 47.070312 96.269531 C 42.871094 96.347656 38.664062 96.3125 34.46875 96.582031 C 34.964844 96.6875 35.953125 96.902344 36.445312 97.011719 C 27.8125 97.675781 19.152344 97.984375 10.523438 98.738281 C 16.074219 98.878906 21.617188 98.46875 27.167969 98.5625 C 22.628906 98.90625 18.101562 99.457031 13.542969 99.371094 C 9.304688 99.386719 5.085938 98.648438 0.847656 98.964844 L 0.847656 96.65625 C 2.636719 96.238281 4.496094 96.269531 6.324219 96.195312 C 20.078125 96.15625 33.832031 95.640625 47.585938 95.351562 " fill-opacity="1" fill-rule="nonzero"/></g><path fill="rgb(34.509277%, 78.819275%, 96.078491%)" d="M 138.1875 82.308594 C 151.207031 82.855469 164.242188 82.445312 177.269531 82.757812 C 164.246094 83.128906 151.210938 82.816406 138.183594 82.925781 C 138.183594 82.769531 138.1875 82.464844 138.1875 82.308594 " fill-opacity="1" fill-rule="nonzero"/><path fill="rgb(36.859131%, 79.60968%, 94.119263%)" d="M 160.6875 83.445312 C 169.625 82.964844 178.582031 83.4375 187.519531 82.9375 C 204.351562 82.867188 221.179688 82.96875 238.011719 82.890625 C 240.167969 82.929688 242.378906 82.800781 244.492188 83.335938 C 225.121094 83.785156 205.742188 83.359375 186.363281 83.527344 C 172.621094 84.042969 158.863281 83.675781 145.113281 83.789062 C 145.113281 83.636719 145.109375 83.335938 145.105469 83.179688 C 150.304688 83.058594 155.488281 83.667969 160.6875 83.445312 " fill-opacity="1" fill-rule="nonzero"/><path fill="rgb(38.038635%, 79.998779%, 92.549133%)" d="M 78.59375 83.988281 C 93.925781 83.40625 109.273438 83.078125 124.625 83.207031 C 129.753906 83.316406 134.933594 82.84375 140.023438 83.671875 C 131.9375 83.6875 123.855469 84.339844 115.773438 83.964844 C 111.828125 83.699219 107.882812 84.160156 103.945312 83.773438 C 103.972656 83.917969 104.019531 84.210938 104.046875 84.359375 C 95.480469 84.617188 86.894531 84.046875 78.34375 84.6875 C 73.347656 84.9375 68.34375 84.921875 63.347656 85.082031 C 68.371094 84.058594 73.535156 84.6875 78.59375 83.988281 " fill-opacity="1" fill-rule="nonzero"/><g clip-path="url(#id29)"><path fill="rgb(38.038635%, 79.998779%, 92.549133%)" d="M 0.847656 89.011719 C 17.320312 88.550781 33.789062 87.957031 50.265625 87.621094 C 46.640625 87.902344 43.027344 88.328125 39.441406 88.929688 C 36.875 89.121094 34.296875 89.265625 31.722656 89.253906 C 21.429688 89.257812 11.140625 89.84375 0.847656 89.871094 L 0.847656 89.011719 " fill-opacity="1" fill-rule="nonzero"/></g><path fill="rgb(36.468506%, 79.60968%, 94.509888%)" d="M 207.433594 85.21875 C 216.96875 84.882812 226.523438 84.746094 236.0625 85.160156 C 232.738281 85.546875 229.394531 85.792969 226.046875 85.785156 C 227.667969 85.636719 229.300781 85.496094 230.929688 85.339844 C 224.152344 85.070312 217.363281 85.167969 210.605469 85.695312 C 200.21875 86.03125 189.828125 85.542969 179.445312 86.058594 C 165.261719 86.082031 151.074219 86.214844 136.890625 85.980469 C 142.652344 85.691406 148.425781 85.902344 154.195312 85.703125 C 148.640625 85.449219 143.078125 85.515625 137.523438 85.394531 C 143.625 85.085938 149.738281 85.207031 155.839844 85.414062 C 173.035156 85.171875 190.234375 85.242188 207.433594 85.21875 " fill-opacity="1" fill-rule="nonzero"/><g clip-path="url(#id30)"><path fill="rgb(34.118652%, 78.819275%, 95.689392%)" d="M 249.558594 85.195312 C 262.824219 84.695312 276.097656 85.042969 289.371094 84.941406 L 289.371094 86.671875 C 260.902344 86.667969 232.4375 86.679688 203.96875 86.664062 C 175.414062 87.3125 146.839844 86.742188 118.28125 87.023438 C 103.566406 87.722656 88.828125 87.46875 74.109375 87.992188 C 62.558594 88.507812 50.996094 88.46875 39.441406 88.929688 C 43.027344 88.328125 46.640625 87.902344 50.265625 87.621094 C 61.972656 86.917969 73.746094 87.332031 85.410156 85.960938 C 91.601562 85.570312 97.8125 85.984375 104.011719 85.660156 C 109.09375 85.402344 114.191406 85.476562 119.269531 85.816406 C 125.355469 85.664062 131.4375 85.453125 137.523438 85.394531 C 143.078125 85.515625 148.640625 85.449219 154.195312 85.703125 C 148.425781 85.902344 142.652344 85.691406 136.890625 85.980469 C 151.074219 86.214844 165.261719 86.082031 179.445312 86.058594 C 189.828125 85.542969 200.21875 86.03125 210.605469 85.695312 C 217.363281 85.167969 224.152344 85.070312 230.929688 85.339844 C 229.300781 85.496094 227.667969 85.636719 226.046875 85.785156 C 229.394531 85.792969 232.738281 85.546875 236.0625 85.160156 C 240.558594 85.207031 245.058594 85.296875 249.558594 85.195312 " fill-opacity="1" fill-rule="nonzero"/></g><g clip-path="url(#id31)"><path fill="rgb(34.118652%, 78.819275%, 95.689392%)" d="M 120.300781 92.078125 C 130.199219 91.503906 140.105469 92.3125 150.011719 92.167969 C 163.09375 92.089844 176.175781 92.347656 189.25 91.886719 C 216.179688 91.832031 243.109375 91.898438 270.039062 91.855469 C 276.480469 91.789062 282.929688 92.34375 289.371094 91.9375 L 289.371094 93.023438 C 263.015625 93.019531 236.664062 93.027344 210.3125 93.015625 C 206.738281 92.996094 203.179688 93.304688 199.621094 93.515625 C 194.144531 93.523438 188.671875 93.296875 183.195312 93.550781 C 161.558594 93.734375 139.910156 93.355469 118.277344 93.914062 C 118.277344 93.777344 118.28125 93.492188 118.28125 93.351562 C 119.859375 93.273438 121.445312 93.1875 123.027344 93.09375 C 104.03125 92.929688 85.042969 93.882812 66.046875 93.910156 C 62.003906 93.949219 57.984375 94.535156 53.9375 94.457031 C 47.347656 94.363281 40.765625 94.914062 34.175781 94.617188 C 51.304688 93.144531 68.503906 93.183594 85.667969 92.480469 C 97.214844 92.472656 108.75 92.097656 120.300781 92.078125 " fill-opacity="1" fill-rule="nonzero"/></g><g clip-path="url(#id32)"><path fill="rgb(38.038635%, 79.998779%, 93.328857%)" d="M 123.46875 87.847656 C 143.078125 86.890625 162.710938 88.347656 182.324219 87.554688 C 218.007812 87.511719 253.6875 87.550781 289.371094 87.539062 L 289.371094 89.871094 C 287.019531 89.832031 284.671875 89.75 282.328125 89.730469 C 283.945312 89.527344 285.566406 89.289062 287.191406 89.070312 C 276.019531 89.015625 264.855469 89.089844 253.6875 89.078125 C 246.679688 89.46875 239.65625 88.523438 232.65625 89.1875 C 232.804688 89.207031 233.101562 89.246094 233.253906 89.265625 C 226.46875 89.390625 219.691406 89.128906 212.910156 88.976562 C 184.058594 89.011719 155.203125 88.925781 126.351562 89.023438 C 113.902344 89.496094 101.441406 89.199219 88.992188 89.667969 C 83.414062 89.96875 77.808594 89.613281 72.253906 90.285156 C 84.160156 90.464844 96.082031 89.652344 107.976562 90.429688 C 101.128906 90.890625 94.261719 90.6875 87.402344 90.691406 C 81.8125 90.617188 76.242188 91.402344 70.648438 91.125 C 65.242188 91.183594 59.84375 91.558594 54.433594 91.53125 C 56.882812 91.375 59.296875 90.921875 61.628906 90.160156 C 68.5 89.355469 75.460938 89.707031 82.335938 88.886719 C 89.070312 88.933594 95.777344 88.378906 102.503906 88.214844 C 109.480469 87.546875 116.480469 88.3125 123.46875 87.847656 " fill-opacity="1" fill-rule="nonzero"/></g><g clip-path="url(#id33)"><path fill="rgb(34.509277%, 78.819275%, 96.078491%)" d="M 232.65625 89.1875 C 239.65625 88.523438 246.679688 89.46875 253.6875 89.078125 C 264.855469 89.089844 276.019531 89.015625 287.191406 89.070312 C 285.566406 89.289062 283.945312 89.527344 282.328125 89.730469 C 267.308594 89.910156 252.285156 90.214844 237.265625 89.6875 C 235.925781 89.5625 234.582031 89.390625 233.253906 89.265625 C 233.101562 89.246094 232.804688 89.207031 232.65625 89.1875 " fill-opacity="1" fill-rule="nonzero"/></g><g clip-path="url(#id34)"><path fill="rgb(34.509277%, 78.819275%, 96.078491%)" d="M 225.1875 95.480469 C 231.238281 94.246094 237.441406 94.863281 243.5625 94.878906 C 258.828125 94.632812 274.097656 94.808594 289.371094 94.753906 L 289.371094 95.910156 C 267.972656 95.839844 246.578125 96.160156 225.1875 95.480469 " fill-opacity="1" fill-rule="nonzero"/></g><path fill="rgb(34.509277%, 78.819275%, 96.078491%)" d="M 56.175781 95.925781 C 62.207031 96.484375 68.226562 95.460938 74.261719 95.699219 C 77.734375 95.664062 81.191406 95.890625 84.652344 96.132812 C 80.074219 96.4375 75.480469 96.089844 70.90625 96.414062 C 62.578125 97.265625 54.183594 96.359375 45.84375 96.988281 C 42.832031 97.375 39.78125 97.382812 36.765625 97.023438 C 40.203125 96.792969 43.65625 96.757812 47.070312 96.269531 C 50.105469 96.148438 53.144531 96.105469 56.175781 95.925781 " fill-opacity="1" fill-rule="nonzero"/><path fill="rgb(38.819885%, 79.998779%, 92.939758%)" d="M 125.582031 95.714844 C 138.820312 95.496094 152.066406 95.683594 165.304688 95.621094 C 180.757812 95.707031 196.21875 95.375 211.664062 95.964844 C 211.816406 96.230469 211.972656 96.503906 212.128906 96.769531 C 209.433594 96.84375 206.734375 96.976562 204.042969 97.035156 C 187 96.304688 169.941406 97.378906 152.898438 96.773438 C 138.136719 96.867188 123.355469 96.445312 108.621094 97.402344 C 104.546875 97.628906 100.464844 97.761719 96.398438 97.332031 C 95.832031 97.054688 95.28125 96.742188 94.734375 96.425781 C 105.007812 95.710938 115.308594 96.367188 125.582031 95.714844 " fill-opacity="1" fill-rule="nonzero"/><g clip-path="url(#id35)"><path fill="rgb(38.819885%, 79.998779%, 92.939758%)" d="M 92.023438 105.140625 C 109.527344 104.53125 127.046875 105.132812 144.558594 104.710938 C 147.816406 104.769531 151.078125 104.871094 154.339844 104.867188 C 192.808594 104.855469 231.28125 104.859375 269.75 104.863281 C 276.289062 104.742188 282.828125 104.460938 289.371094 104.566406 L 289.371094 105.726562 C 275.136719 105.710938 260.902344 105.753906 246.664062 105.714844 C 232.535156 105.214844 218.394531 105.511719 204.257812 105.449219 C 180.699219 104.878906 157.128906 105.242188 133.5625 105.160156 C 121.199219 105.671875 108.816406 105.210938 96.445312 105.652344 C 90.238281 106.160156 84.015625 105.433594 77.804688 105.921875 C 65.214844 106.210938 52.617188 106.34375 40.023438 106.65625 C 37.691406 106.566406 35.355469 106.515625 33.027344 106.417969 C 37.511719 106.242188 42 106.054688 46.484375 105.816406 C 61.664062 105.597656 76.835938 104.96875 92.023438 105.140625 " fill-opacity="1" fill-rule="nonzero"/></g><path fill="rgb(38.42926%, 79.998779%, 92.939758%)" d="M 108.621094 97.402344 C 123.355469 96.445312 138.136719 96.867188 152.898438 96.773438 C 169.941406 97.378906 187 96.304688 204.042969 97.035156 C 203.316406 97.128906 202.59375 97.222656 201.882812 97.320312 C 197.496094 97.789062 193.074219 97.734375 188.679688 97.398438 C 173.292969 97.285156 157.902344 97.390625 142.511719 97.351562 C 132.269531 97.710938 122.023438 97.367188 111.78125 97.699219 C 110.722656 97.59375 109.679688 97.441406 108.621094 97.402344 " fill-opacity="1" fill-rule="nonzero"/><g clip-path="url(#id36)"><path fill="rgb(38.038635%, 79.998779%, 93.328857%)" d="M 204.042969 97.035156 C 206.734375 96.976562 209.433594 96.84375 212.128906 96.769531 C 225.277344 96.796875 238.425781 96.734375 251.578125 96.804688 C 264.171875 97.265625 276.769531 97 289.371094 97.066406 L 289.371094 98.21875 C 277.257812 98.128906 265.132812 98.402344 253.027344 98.097656 C 243.523438 97.21875 233.972656 97.796875 224.453125 97.652344 C 216.925781 97.796875 209.40625 97.207031 201.882812 97.320312 C 202.59375 97.222656 203.316406 97.128906 204.042969 97.035156 " fill-opacity="1" fill-rule="nonzero"/></g><g clip-path="url(#id37)"><path fill="rgb(38.42926%, 79.998779%, 92.549133%)" d="M 65.472656 97.6875 C 75.78125 97.730469 86.09375 97.003906 96.398438 97.332031 C 100.464844 97.761719 104.546875 97.628906 108.621094 97.402344 C 109.679688 97.441406 110.722656 97.59375 111.78125 97.699219 C 108.664062 98.109375 105.519531 98.246094 102.382812 98.066406 C 96.054688 97.71875 89.734375 98.179688 83.414062 98.324219 C 74.839844 98.742188 66.242188 98.1875 57.679688 98.90625 C 49.464844 98.925781 41.230469 98.757812 33.046875 99.667969 C 27.453125 100.289062 21.8125 100.148438 16.203125 100.628906 C 11.09375 101.039062 5.960938 101.050781 0.847656 101.417969 L 0.847656 98.964844 C 5.085938 98.648438 9.304688 99.386719 13.542969 99.371094 C 18.101562 99.457031 22.628906 98.90625 27.167969 98.5625 C 39.9375 98.320312 52.707031 98.097656 65.472656 97.6875 " fill-opacity="1" fill-rule="nonzero"/></g><g clip-path="url(#id38)"><path fill="rgb(38.42926%, 79.998779%, 93.328857%)" d="M 70.746094 114.445312 C 70.644531 114.566406 70.4375 114.816406 70.335938 114.9375 C 74.957031 114.550781 79.597656 114.734375 84.234375 114.652344 C 96.820312 114.007812 109.433594 114.757812 122.023438 114.140625 C 129.28125 114.109375 136.554688 113.9375 143.808594 114.277344 C 139.199219 114.46875 134.578125 114.28125 129.96875 114.570312 C 142.320312 114.828125 154.679688 114.59375 167.03125 114.683594 L 167.035156 114.4375 C 166.285156 114.371094 164.777344 114.246094 164.023438 114.179688 C 171.949219 114.003906 179.882812 114.128906 187.808594 114.09375 C 202.03125 114.714844 216.269531 114.160156 230.5 114.476562 C 240.117188 114.929688 249.746094 114.496094 259.367188 114.734375 C 264.019531 114.984375 268.679688 115.082031 273.339844 114.816406 C 270.253906 114.222656 267.097656 114.386719 263.980469 114.382812 C 245.484375 114.230469 226.992188 113.359375 208.496094 113.441406 C 184.871094 113.03125 161.234375 113.316406 137.605469 113.234375 C 128.996094 113.300781 120.375 113.066406 111.769531 113.390625 C 98.089844 113.242188 84.421875 114.128906 70.746094 114.445312 Z M 115.679688 107.71875 C 112.5625 107.777344 109.273438 107.457031 106.351562 108.789062 C 102.738281 109.140625 99.105469 109.097656 95.480469 109.21875 L 95.488281 109.484375 C 106.546875 109.417969 117.609375 109.671875 128.660156 109.207031 C 150.296875 109.167969 171.941406 109.203125 193.582031 109.191406 C 204.394531 109.550781 215.230469 109.660156 226.046875 109.292969 C 225.203125 109.226562 224.339844 109.144531 223.515625 109.128906 C 226.628906 108.5 229.796875 108.371094 232.953125 108.101562 C 229.246094 107.902344 225.554688 108.398438 221.851562 108.308594 C 208.136719 107.050781 194.335938 108.253906 180.597656 107.523438 C 167.132812 107.382812 153.667969 107.476562 140.199219 107.472656 C 132.03125 107.8125 123.851562 107.789062 115.679688 107.71875 Z M 116.695312 102.734375 C 124.625 102.910156 132.566406 102.976562 140.488281 102.601562 C 153.996094 102.359375 167.519531 102.828125 181.019531 102.367188 C 165.207031 102.117188 149.382812 102.335938 133.566406 102.261719 C 127.945312 102.5 122.316406 102.492188 116.695312 102.734375 Z M 111.78125 97.699219 C 122.023438 97.367188 132.269531 97.710938 142.511719 97.351562 C 157.902344 97.390625 173.292969 97.285156 188.679688 97.398438 C 193.074219 97.734375 197.496094 97.789062 201.882812 97.320312 C 209.40625 97.207031 216.925781 97.796875 224.453125 97.652344 C 233.972656 97.796875 243.523438 97.21875 253.027344 98.097656 C 265.132812 98.402344 277.257812 98.128906 289.371094 98.21875 L 289.371094 98.542969 C 279.808594 99.332031 270.164062 98.132812 260.632812 99.191406 C 251.390625 98.898438 242.140625 99.375 232.90625 98.859375 C 225.488281 98.226562 218.035156 98.585938 210.605469 98.511719 C 199.738281 98.433594 188.863281 98.714844 178.003906 98.261719 C 170.789062 98.164062 163.570312 98.207031 156.351562 98.242188 C 151.878906 98.1875 147.453125 98.933594 143.003906 99.222656 C 141.898438 99.222656 140.796875 99.21875 139.699219 99.214844 C 133.320312 99.183594 126.964844 98.539062 120.585938 98.5 C 113.65625 98.398438 106.738281 98.925781 99.808594 98.800781 C 91.628906 98.65625 83.472656 99.390625 75.296875 99.4375 C 71.519531 99.703125 67.742188 100.109375 63.949219 100.078125 C 56.371094 99.792969 48.808594 100.34375 41.238281 100.578125 C 33.113281 100.933594 24.980469 101.164062 16.875 101.839844 C 26.441406 102.078125 36.019531 102.546875 45.589844 102.101562 C 55.339844 101.742188 65.101562 102.199219 74.851562 101.839844 C 80.925781 101.570312 87.007812 101.78125 93.082031 101.589844 C 100.578125 101.195312 108.085938 101.550781 115.585938 101.292969 C 124.226562 100.871094 132.878906 101.316406 141.519531 100.960938 C 147.523438 100.714844 153.53125 101.207031 159.535156 100.847656 C 180.015625 101.332031 200.503906 101.03125 220.992188 101.097656 C 229.167969 100.964844 237.335938 101.492188 245.515625 101.40625 C 260.136719 101.3125 274.769531 101.707031 289.371094 100.789062 L 289.371094 102.566406 C 283.601562 102.5 277.828125 102.5 272.0625 102.300781 C 258.875 102.125 245.6875 102.453125 232.503906 102.121094 C 226.453125 102.023438 220.40625 102.46875 214.359375 102.539062 C 207.769531 102.625 201.164062 102.304688 194.597656 103.007812 C 203.15625 103.125 211.714844 102.832031 220.269531 103.230469 C 227.625 103.53125 234.980469 103.726562 242.34375 103.753906 C 258.015625 104.339844 273.703125 103.617188 289.371094 104.316406 L 289.371094 104.566406 C 282.828125 104.460938 276.289062 104.742188 269.75 104.863281 C 231.28125 104.859375 192.808594 104.855469 154.339844 104.867188 C 151.078125 104.871094 147.816406 104.769531 144.558594 104.710938 C 127.046875 105.132812 109.527344 104.53125 92.023438 105.140625 C 76.835938 104.96875 61.664062 105.597656 46.484375 105.816406 C 42 106.054688 37.511719 106.242188 33.027344 106.417969 C 35.355469 106.515625 37.691406 106.566406 40.023438 106.65625 C 43.289062 106.921875 46.546875 107.367188 49.828125 107.324219 C 60.296875 107.222656 70.742188 106.46875 81.203125 106.179688 C 80.355469 106.113281 78.65625 105.984375 77.804688 105.921875 C 84.015625 105.433594 90.238281 106.160156 96.445312 105.652344 C 108.816406 105.210938 121.199219 105.671875 133.5625 105.160156 C 157.128906 105.242188 180.699219 104.878906 204.257812 105.449219 C 218.394531 105.511719 232.535156 105.214844 246.664062 105.714844 C 260.902344 105.753906 275.136719 105.710938 289.371094 105.726562 L 289.371094 117.277344 C 280.148438 117.785156 270.90625 117.492188 261.671875 117.5625 C 251.480469 117.5 241.28125 117.746094 231.09375 117.339844 C 217.148438 117.09375 203.195312 117.546875 189.257812 117.015625 C 164.25 116.96875 139.238281 116.964844 114.234375 117.015625 C 98.25 117.601562 82.238281 116.890625 66.265625 117.910156 C 47.761719 118.300781 29.234375 118.140625 10.757812 119.320312 C 17.714844 119.746094 24.675781 119.160156 31.636719 119.109375 C 40.890625 118.976562 50.144531 118.824219 59.398438 118.636719 C 66.265625 118.253906 73.15625 118.640625 80.023438 118.179688 C 89.40625 118.183594 98.789062 117.992188 108.171875 117.933594 C 128.460938 118.625 148.761719 116.917969 169.054688 117.800781 C 179.121094 117.84375 189.1875 118.425781 199.257812 118.035156 C 205.347656 117.746094 211.445312 118.011719 217.523438 118.390625 C 222.351562 118.628906 227.167969 118.179688 231.988281 118.035156 C 238.003906 118.476562 244.039062 118.5 250.0625 118.125 C 259.59375 118.953125 269.164062 117.847656 278.691406 118.640625 C 282.246094 118.777344 285.808594 118.734375 289.371094 118.722656 L 289.371094 120.199219 C 288.898438 120.230469 287.953125 120.296875 287.480469 120.332031 C 274.839844 120.042969 262.195312 119.929688 249.550781 119.8125 C 237.074219 119.300781 224.589844 119.816406 212.109375 119.464844 C 205.730469 119.199219 199.34375 119.363281 192.96875 119.183594 C 193.703125 119.023438 194.472656 118.863281 195.210938 118.675781 C 192.554688 118.480469 189.890625 118.429688 187.234375 118.414062 C 163.1875 118.445312 139.144531 118.429688 115.097656 118.421875 C 111.777344 118.433594 108.460938 118.566406 105.152344 118.84375 C 116.257812 119.234375 127.363281 118.628906 138.472656 118.710938 C 147.304688 118.777344 156.140625 118.601562 164.96875 118.8125 C 174.136719 119.273438 183.324219 118.742188 192.492188 119.1875 C 189.175781 119.320312 185.867188 119.585938 182.558594 119.761719 C 180.800781 119.84375 179.046875 120.007812 177.296875 120.09375 C 169.074219 119.652344 160.839844 119.953125 152.609375 119.875 C 145.929688 119.945312 139.234375 119.65625 132.558594 120.078125 C 130.507812 120.007812 128.464844 119.890625 126.421875 119.8125 C 116.808594 119.113281 107.15625 119.238281 97.527344 119.390625 C 89.039062 119.8125 80.535156 119.351562 72.050781 119.769531 C 60.722656 119.988281 49.398438 120.277344 38.070312 120.238281 C 25.664062 120.617188 13.257812 120.890625 0.847656 121.042969 L 0.847656 118.144531 C 7.195312 118.15625 13.546875 118.246094 19.882812 117.828125 C 24.546875 117.515625 29.21875 117.867188 33.882812 117.726562 C 48.3125 117.402344 62.738281 116.941406 77.15625 116.285156 C 72.488281 116.054688 67.8125 116.0625 63.144531 116.273438 C 46.804688 116.769531 30.460938 116.765625 14.121094 117.207031 C 9.695312 117.332031 5.246094 116.953125 0.847656 117.585938 L 0.847656 105.730469 C 22.007812 105.574219 43.160156 104.949219 64.320312 104.582031 C 80.15625 104.601562 95.941406 103.019531 111.773438 103.039062 C 106.839844 102.589844 101.878906 102.503906 96.925781 102.535156 C 64.894531 102.648438 32.875 103.769531 0.847656 104.007812 L 0.847656 101.417969 C 5.960938 101.050781 11.09375 101.039062 16.203125 100.628906 C 21.8125 100.148438 27.453125 100.289062 33.046875 99.667969 C 41.230469 98.757812 49.464844 98.925781 57.679688 98.90625 C 66.242188 98.1875 74.839844 98.742188 83.414062 98.324219 C 89.734375 98.179688 96.054688 97.71875 102.382812 98.066406 C 105.519531 98.246094 108.664062 98.109375 111.78125 97.699219 " fill-opacity="1" fill-rule="nonzero"/></g><path fill="rgb(34.899902%, 79.219055%, 96.078491%)" d="M 143.003906 99.222656 C 147.453125 98.933594 151.878906 98.1875 156.351562 98.242188 C 163.570312 98.207031 170.789062 98.164062 178.003906 98.261719 C 188.863281 98.714844 199.738281 98.433594 210.605469 98.511719 C 218.035156 98.585938 225.488281 98.226562 232.90625 98.859375 C 242.140625 99.375 251.390625 98.898438 260.632812 99.191406 C 258.324219 99.667969 255.9375 99.640625 253.597656 99.695312 C 244.941406 99.660156 236.285156 99.730469 227.636719 99.425781 C 208.398438 99.246094 189.160156 99.515625 169.925781 99.300781 C 160.957031 98.832031 151.976562 99.203125 143.003906 99.222656 " fill-opacity="1" fill-rule="nonzero"/><path fill="rgb(34.899902%, 79.219055%, 96.078491%)" d="M 99.808594 98.800781 C 106.738281 98.925781 113.65625 98.398438 120.585938 98.5 C 126.964844 98.539062 133.320312 99.183594 139.699219 99.214844 C 131.695312 99.523438 123.683594 99.203125 115.683594 99.585938 C 105.199219 99.84375 94.710938 99.421875 84.234375 99.902344 C 77.46875 99.917969 70.710938 100.464844 63.949219 100.078125 C 67.742188 100.109375 71.519531 99.703125 75.296875 99.4375 C 83.472656 99.390625 91.628906 98.65625 99.808594 98.800781 " fill-opacity="1" fill-rule="nonzero"/><g clip-path="url(#id39)"><path fill="rgb(38.42926%, 79.998779%, 93.328857%)" d="M 260.632812 99.191406 C 270.164062 98.132812 279.808594 99.332031 289.371094 98.542969 L 289.371094 100.789062 C 274.769531 101.707031 260.136719 101.3125 245.515625 101.40625 C 237.335938 101.492188 229.167969 100.964844 220.992188 101.097656 C 200.503906 101.03125 180.015625 101.332031 159.535156 100.847656 C 153.53125 101.207031 147.523438 100.714844 141.519531 100.960938 C 132.878906 101.316406 124.226562 100.871094 115.585938 101.292969 C 108.085938 101.550781 100.578125 101.195312 93.082031 101.589844 C 87.007812 101.78125 80.925781 101.570312 74.851562 101.839844 C 65.101562 102.199219 55.339844 101.742188 45.589844 102.101562 C 36.019531 102.546875 26.441406 102.078125 16.875 101.839844 C 24.980469 101.164062 33.113281 100.933594 41.238281 100.578125 C 48.808594 100.34375 56.371094 99.792969 63.949219 100.078125 C 70.710938 100.464844 77.46875 99.917969 84.234375 99.902344 C 94.710938 99.421875 105.199219 99.84375 115.683594 99.585938 C 123.683594 99.203125 131.695312 99.523438 139.699219 99.214844 C 140.796875 99.21875 141.898438 99.222656 143.003906 99.222656 C 151.976562 99.203125 160.957031 98.832031 169.925781 99.300781 C 189.160156 99.515625 208.398438 99.246094 227.636719 99.425781 C 236.285156 99.730469 244.941406 99.660156 253.597656 99.695312 C 255.9375 99.640625 258.324219 99.667969 260.632812 99.191406 " fill-opacity="1" fill-rule="nonzero"/></g><g clip-path="url(#id40)"><path fill="rgb(38.42926%, 79.998779%, 93.328857%)" d="M 214.359375 102.539062 C 220.40625 102.46875 226.453125 102.023438 232.503906 102.121094 C 245.6875 102.453125 258.875 102.125 272.0625 102.300781 C 277.828125 102.5 283.601562 102.5 289.371094 102.566406 L 289.371094 104.316406 C 273.703125 103.617188 258.015625 104.339844 242.34375 103.753906 C 234.980469 103.726562 227.625 103.53125 220.269531 103.230469 C 211.714844 102.832031 203.15625 103.125 194.597656 103.007812 C 201.164062 102.304688 207.769531 102.625 214.359375 102.539062 " fill-opacity="1" fill-rule="nonzero"/></g><path fill="rgb(34.899902%, 79.219055%, 96.078491%)" d="M 116.695312 102.734375 C 122.316406 102.492188 127.945312 102.5 133.566406 102.261719 C 149.382812 102.335938 165.207031 102.117188 181.019531 102.367188 C 167.519531 102.828125 153.996094 102.359375 140.488281 102.601562 C 132.566406 102.976562 124.625 102.910156 116.695312 102.734375 " fill-opacity="1" fill-rule="nonzero"/><g clip-path="url(#id41)"><path fill="rgb(38.819885%, 79.998779%, 92.939758%)" d="M 0.847656 104.007812 C 32.875 103.769531 64.894531 102.648438 96.925781 102.535156 C 101.878906 102.503906 106.839844 102.589844 111.773438 103.039062 C 95.941406 103.019531 80.15625 104.601562 64.320312 104.582031 C 43.160156 104.949219 22.007812 105.574219 0.847656 105.730469 L 0.847656 104.007812 " fill-opacity="1" fill-rule="nonzero"/></g><path fill="rgb(40.779114%, 80.778503%, 90.19928%)" d="M 40.023438 106.65625 C 52.617188 106.34375 65.214844 106.210938 77.804688 105.921875 C 78.65625 105.984375 80.355469 106.113281 81.203125 106.179688 C 70.742188 106.46875 60.296875 107.222656 49.828125 107.324219 C 46.546875 107.367188 43.289062 106.921875 40.023438 106.65625 " fill-opacity="1" fill-rule="nonzero"/><path fill="rgb(38.42926%, 79.998779%, 93.328857%)" d="M 115.679688 107.71875 C 123.851562 107.789062 132.03125 107.8125 140.199219 107.472656 C 153.667969 107.476562 167.132812 107.382812 180.597656 107.523438 C 194.335938 108.253906 208.136719 107.050781 221.851562 108.308594 C 225.554688 108.398438 229.246094 107.902344 232.953125 108.101562 C 229.796875 108.371094 226.628906 108.5 223.515625 109.128906 C 214.199219 109.46875 204.914062 108.390625 195.597656 108.558594 C 190.691406 108.296875 185.789062 108.628906 180.882812 108.417969 C 176.980469 108.300781 173.085938 108.917969 169.1875 108.582031 C 162.800781 108.023438 156.40625 108.75 150.011719 108.632812 C 142.695312 108.550781 135.375 108.035156 128.0625 108.519531 C 120.832031 109.046875 113.585938 108.335938 106.351562 108.789062 C 109.273438 107.457031 112.5625 107.777344 115.679688 107.71875 " fill-opacity="1" fill-rule="nonzero"/><path fill="rgb(34.899902%, 78.819275%, 96.078491%)" d="M 128.0625 108.519531 C 135.375 108.035156 142.695312 108.550781 150.011719 108.632812 C 156.40625 108.75 162.800781 108.023438 169.1875 108.582031 C 173.085938 108.917969 176.980469 108.300781 180.882812 108.417969 C 185.789062 108.628906 190.691406 108.296875 195.597656 108.558594 C 204.914062 108.390625 214.199219 109.46875 223.515625 109.128906 C 224.339844 109.144531 225.203125 109.226562 226.046875 109.292969 C 215.230469 109.660156 204.394531 109.550781 193.582031 109.191406 C 171.941406 109.203125 150.296875 109.167969 128.660156 109.207031 C 117.609375 109.671875 106.546875 109.417969 95.488281 109.484375 L 95.480469 109.21875 C 99.105469 109.097656 102.738281 109.140625 106.351562 108.789062 C 113.585938 108.335938 120.832031 109.046875 128.0625 108.519531 " fill-opacity="1" fill-rule="nonzero"/></svg>